<svg width="213" height="65" viewBox="0 0 213 65" fill="none" xmlns="http://www.w3.org/2000/svg">
<rect width="213" height="65" rx="32.5" fill="#FFB23C"/>
<path d="M34.7891 34.0273H28.0391V41H24.5234V23.9375H35.6328V26.7852H28.0391V31.1914H34.7891V34.0273ZM41.0234 41H37.625V28.3203H41.0234V41ZM37.4258 25.0391C37.4258 24.5312 37.5938 24.1133 37.9297 23.7852C38.2734 23.457 38.7383 23.293 39.3242 23.293C39.9023 23.293 40.3633 23.457 40.707 23.7852C41.0508 24.1133 41.2227 24.5312 41.2227 25.0391C41.2227 25.5547 41.0469 25.9766 40.6953 26.3047C40.3516 26.6328 39.8945 26.7969 39.3242 26.7969C38.7539 26.7969 38.293 26.6328 37.9414 26.3047C37.5977 25.9766 37.4258 25.5547 37.4258 25.0391ZM46.9414 28.3203L47.0469 29.7852C47.9531 28.6523 49.168 28.0859 50.6914 28.0859C52.0352 28.0859 53.0352 28.4805 53.6914 29.2695C54.3477 30.0586 54.6836 31.2383 54.6992 32.8086V41H51.3125V32.8906C51.3125 32.1719 51.1562 31.6523 50.8438 31.332C50.5312 31.0039 50.0117 30.8398 49.2852 30.8398C48.332 30.8398 47.6172 31.2461 47.1406 32.0586V41H43.7539V28.3203H46.9414ZM56.75 34.5664C56.75 32.5898 57.1914 31.0156 58.0742 29.8438C58.9648 28.6719 60.1797 28.0859 61.7188 28.0859C62.9531 28.0859 63.9727 28.5469 64.7773 29.4688V23H68.1758V41H65.1172L64.9531 39.6523C64.1094 40.707 63.0234 41.2344 61.6953 41.2344C60.2031 41.2344 59.0039 40.6484 58.0977 39.4766C57.1992 38.2969 56.75 36.6602 56.75 34.5664ZM60.1367 34.8125C60.1367 36 60.3438 36.9102 60.7578 37.543C61.1719 38.1758 61.7734 38.4922 62.5625 38.4922C63.6094 38.4922 64.3477 38.0508 64.7773 37.168V32.1641C64.3555 31.2812 63.625 30.8398 62.5859 30.8398C60.9531 30.8398 60.1367 32.1641 60.1367 34.8125ZM77 41V23.9375H82.25C83.75 23.9375 85.0898 24.2773 86.2695 24.957C87.457 25.6289 88.3828 26.5898 89.0469 27.8398C89.7109 29.082 90.043 30.4961 90.043 32.082V32.8672C90.043 34.4531 89.7148 35.8633 89.0586 37.0977C88.4102 38.332 87.4922 39.2891 86.3047 39.9688C85.1172 40.6484 83.7773 40.9922 82.2852 41H77ZM80.5156 26.7852V38.1758H82.2148C83.5898 38.1758 84.6406 37.7266 85.3672 36.8281C86.0938 35.9297 86.4648 34.6445 86.4805 32.9727V32.0703C86.4805 30.3359 86.1211 29.0234 85.4023 28.1328C84.6836 27.2344 83.6328 26.7852 82.25 26.7852H80.5156ZM98.2227 41.2344C96.3633 41.2344 94.8477 40.6641 93.6758 39.5234C92.5117 38.3828 91.9297 36.8633 91.9297 34.9648V34.6367C91.9297 33.3633 92.1758 32.2266 92.668 31.2266C93.1602 30.2188 93.8555 29.4453 94.7539 28.9062C95.6602 28.3594 96.6914 28.0859 97.8477 28.0859C99.582 28.0859 100.945 28.6328 101.938 29.7266C102.938 30.8203 103.438 32.3711 103.438 34.3789V35.7617H95.3633C95.4727 36.5898 95.8008 37.2539 96.3477 37.7539C96.9023 38.2539 97.6016 38.5039 98.4453 38.5039C99.75 38.5039 100.77 38.0312 101.504 37.0859L103.168 38.9492C102.66 39.668 101.973 40.2305 101.105 40.6367C100.238 41.0352 99.2773 41.2344 98.2227 41.2344ZM97.8359 30.8281C97.1641 30.8281 96.6172 31.0547 96.1953 31.5078C95.7812 31.9609 95.5156 32.6094 95.3984 33.4531H100.109V33.1836C100.094 32.4336 99.8906 31.8555 99.5 31.4492C99.1094 31.0352 98.5547 30.8281 97.8359 30.8281ZM112.719 41C112.562 40.6953 112.449 40.3164 112.379 39.8633C111.559 40.7773 110.492 41.2344 109.18 41.2344C107.938 41.2344 106.906 40.875 106.086 40.1562C105.273 39.4375 104.867 38.5312 104.867 37.4375C104.867 36.0938 105.363 35.0625 106.355 34.3438C107.355 33.625 108.797 33.2617 110.68 33.2539H112.238V32.5273C112.238 31.9414 112.086 31.4727 111.781 31.1211C111.484 30.7695 111.012 30.5938 110.363 30.5938C109.793 30.5938 109.344 30.7305 109.016 31.0039C108.695 31.2773 108.535 31.6523 108.535 32.1289H105.148C105.148 31.3945 105.375 30.7148 105.828 30.0898C106.281 29.4648 106.922 28.9766 107.75 28.625C108.578 28.2656 109.508 28.0859 110.539 28.0859C112.102 28.0859 113.34 28.4805 114.254 29.2695C115.176 30.0508 115.637 31.1523 115.637 32.5742V38.0703C115.645 39.2734 115.812 40.1836 116.141 40.8008V41H112.719ZM109.918 38.6445C110.418 38.6445 110.879 38.5352 111.301 38.3164C111.723 38.0898 112.035 37.7891 112.238 37.4141V35.2344H110.973C109.277 35.2344 108.375 35.8203 108.266 36.9922L108.254 37.1914C108.254 37.6133 108.402 37.9609 108.699 38.2344C108.996 38.5078 109.402 38.6445 109.918 38.6445ZM121.812 41H118.414V23H121.812V41ZM131.48 37.4961C131.48 37.082 131.273 36.7578 130.859 36.5234C130.453 36.2812 129.797 36.0664 128.891 35.8789C125.875 35.2461 124.367 33.9648 124.367 32.0352C124.367 30.9102 124.832 29.9727 125.762 29.2227C126.699 28.4648 127.922 28.0859 129.43 28.0859C131.039 28.0859 132.324 28.4648 133.285 29.2227C134.254 29.9805 134.738 30.9648 134.738 32.1758H131.352C131.352 31.6914 131.195 31.293 130.883 30.9805C130.57 30.6602 130.082 30.5 129.418 30.5C128.848 30.5 128.406 30.6289 128.094 30.8867C127.781 31.1445 127.625 31.4727 127.625 31.8711C127.625 32.2461 127.801 32.5508 128.152 32.7852C128.512 33.0117 129.113 33.2109 129.957 33.3828C130.801 33.5469 131.512 33.7344 132.09 33.9453C133.879 34.6016 134.773 35.7383 134.773 37.3555C134.773 38.5117 134.277 39.4492 133.285 40.168C132.293 40.8789 131.012 41.2344 129.441 41.2344C128.379 41.2344 127.434 41.0469 126.605 40.6719C125.785 40.2891 125.141 39.7695 124.672 39.1133C124.203 38.4492 123.969 37.7344 123.969 36.9688H127.18C127.211 37.5703 127.434 38.0312 127.848 38.3516C128.262 38.6719 128.816 38.832 129.512 38.832C130.16 38.832 130.648 38.7109 130.977 38.4688C131.312 38.2188 131.48 37.8945 131.48 37.4961ZM157.039 41H153.523L146.68 29.7734V41H143.164V23.9375H146.68L153.535 35.1875V23.9375H157.039V41ZM159.359 34.543C159.359 33.2852 159.602 32.1641 160.086 31.1797C160.57 30.1953 161.266 29.4336 162.172 28.8945C163.086 28.3555 164.145 28.0859 165.348 28.0859C167.059 28.0859 168.453 28.6094 169.531 29.6562C170.617 30.7031 171.223 32.125 171.348 33.9219L171.371 34.7891C171.371 36.7344 170.828 38.2969 169.742 39.4766C168.656 40.6484 167.199 41.2344 165.371 41.2344C163.543 41.2344 162.082 40.6484 160.988 39.4766C159.902 38.3047 159.359 36.7109 159.359 34.6953V34.543ZM162.746 34.7891C162.746 35.9922 162.973 36.9141 163.426 37.5547C163.879 38.1875 164.527 38.5039 165.371 38.5039C166.191 38.5039 166.832 38.1914 167.293 37.5664C167.754 36.9336 167.984 35.9258 167.984 34.543C167.984 33.3633 167.754 32.4492 167.293 31.8008C166.832 31.1523 166.184 30.8281 165.348 30.8281C164.52 30.8281 163.879 31.1523 163.426 31.8008C162.973 32.4414 162.746 33.4375 162.746 34.7891ZM184.484 36.3945L186.148 28.3203H189.418L186.184 41H183.348L180.945 33.0195L178.543 41H175.719L172.484 28.3203H175.754L177.406 36.3828L179.727 28.3203H182.176L184.484 36.3945Z" fill="black"/>
</svg>
