<svg width="403" height="667" viewBox="0 0 403 667" fill="none" xmlns="http://www.w3.org/2000/svg">
<g filter="url(#filter0_d)">
<rect x="4" width="395" height="659" rx="35" fill="white"/>
<rect x="4.5" y="0.5" width="394" height="658" rx="34.5" stroke="black"/>
</g>
<path d="M98.873 400.276L99.2832 403.089L99.8838 400.555L104.103 385.672H106.476L110.592 400.555L111.178 403.133L111.632 400.262L114.942 385.672H117.77L112.599 407H110.035L105.641 391.458L105.304 389.832L104.967 391.458L100.411 407H97.8477L92.6914 385.672H95.5039L98.873 400.276ZM126.588 407.293C124.439 407.293 122.691 406.59 121.344 405.184C119.996 403.768 119.322 401.878 119.322 399.515V399.017C119.322 397.444 119.62 396.043 120.216 394.812C120.821 393.572 121.661 392.605 122.735 391.912C123.819 391.209 124.991 390.857 126.251 390.857C128.312 390.857 129.913 391.536 131.056 392.894C132.198 394.251 132.77 396.194 132.77 398.724V399.852H122.032C122.071 401.414 122.525 402.679 123.395 403.646C124.273 404.603 125.387 405.081 126.734 405.081C127.691 405.081 128.502 404.886 129.166 404.495C129.83 404.104 130.411 403.587 130.909 402.942L132.564 404.231C131.236 406.272 129.244 407.293 126.588 407.293ZM126.251 393.084C125.157 393.084 124.239 393.484 123.497 394.285C122.755 395.076 122.296 396.189 122.12 397.625H130.06V397.42C129.981 396.043 129.61 394.979 128.946 394.227C128.282 393.465 127.384 393.084 126.251 393.084ZM153.146 407C152.989 406.688 152.862 406.131 152.765 405.33C151.505 406.639 150.001 407.293 148.253 407.293C146.69 407.293 145.406 406.854 144.4 405.975C143.404 405.086 142.906 403.963 142.906 402.605C142.906 400.955 143.531 399.676 144.781 398.768C146.041 397.85 147.809 397.391 150.084 397.391H152.721V396.146C152.721 395.198 152.438 394.446 151.871 393.89C151.305 393.323 150.47 393.04 149.366 393.04C148.399 393.04 147.589 393.284 146.935 393.772C146.28 394.261 145.953 394.852 145.953 395.545H143.229C143.229 394.754 143.507 393.992 144.063 393.26C144.63 392.518 145.392 391.932 146.349 391.502C147.315 391.072 148.375 390.857 149.527 390.857C151.354 390.857 152.784 391.316 153.819 392.234C154.854 393.143 155.392 394.397 155.431 395.999V403.294C155.431 404.749 155.616 405.906 155.987 406.766V407H153.146ZM148.648 404.935C149.498 404.935 150.304 404.715 151.065 404.275C151.827 403.836 152.379 403.265 152.721 402.562V399.31H150.597C147.276 399.31 145.616 400.281 145.616 402.225C145.616 403.074 145.899 403.738 146.466 404.217C147.032 404.695 147.76 404.935 148.648 404.935ZM162.623 407H159.913V391.15H162.623V407ZM159.693 386.946C159.693 386.507 159.825 386.136 160.089 385.833C160.362 385.53 160.763 385.379 161.29 385.379C161.817 385.379 162.218 385.53 162.491 385.833C162.765 386.136 162.901 386.507 162.901 386.946C162.901 387.386 162.765 387.752 162.491 388.045C162.218 388.338 161.817 388.484 161.29 388.484C160.763 388.484 160.362 388.338 160.089 388.045C159.825 387.752 159.693 387.386 159.693 386.946ZM169.522 391.15L169.596 392.908C170.758 391.541 172.325 390.857 174.298 390.857C176.515 390.857 178.023 391.707 178.824 393.406C179.352 392.645 180.035 392.029 180.875 391.561C181.725 391.092 182.726 390.857 183.878 390.857C187.354 390.857 189.122 392.698 189.181 396.38V407H186.471V396.541C186.471 395.408 186.212 394.563 185.694 394.007C185.177 393.44 184.308 393.157 183.087 393.157C182.081 393.157 181.246 393.46 180.582 394.065C179.918 394.661 179.532 395.467 179.425 396.482V407H176.7V396.614C176.7 394.31 175.572 393.157 173.316 393.157C171.539 393.157 170.323 393.914 169.669 395.428V407H166.959V391.15H169.522ZM204.4 387.312V391.15H207.359V393.245H204.4V403.074C204.4 403.709 204.532 404.188 204.796 404.51C205.06 404.822 205.509 404.979 206.144 404.979C206.456 404.979 206.886 404.92 207.433 404.803V407C206.72 407.195 206.026 407.293 205.353 407.293C204.142 407.293 203.229 406.927 202.613 406.194C201.998 405.462 201.69 404.422 201.69 403.074V393.245H198.805V391.15H201.69V387.312H204.4ZM209.527 398.929C209.527 397.376 209.83 395.979 210.436 394.739C211.051 393.499 211.9 392.542 212.984 391.868C214.078 391.194 215.323 390.857 216.72 390.857C218.878 390.857 220.621 391.604 221.949 393.099C223.287 394.593 223.956 396.58 223.956 399.061V399.251C223.956 400.794 223.658 402.181 223.062 403.411C222.477 404.632 221.632 405.584 220.528 406.268C219.435 406.951 218.175 407.293 216.749 407.293C214.601 407.293 212.857 406.546 211.52 405.052C210.191 403.558 209.527 401.58 209.527 399.119V398.929ZM212.252 399.251C212.252 401.009 212.657 402.42 213.468 403.484C214.288 404.549 215.382 405.081 216.749 405.081C218.126 405.081 219.22 404.544 220.03 403.47C220.841 402.386 221.246 400.872 221.246 398.929C221.246 397.19 220.831 395.784 220.001 394.71C219.181 393.626 218.087 393.084 216.72 393.084C215.382 393.084 214.303 393.616 213.482 394.681C212.662 395.745 212.252 397.269 212.252 399.251ZM248.214 399.251C248.214 401.673 247.657 403.621 246.544 405.096C245.431 406.561 243.937 407.293 242.062 407.293C240.06 407.293 238.512 406.585 237.418 405.169L237.286 407H234.796V384.5H237.506V392.894C238.6 391.536 240.108 390.857 242.032 390.857C243.956 390.857 245.465 391.585 246.559 393.04C247.662 394.495 248.214 396.487 248.214 399.017V399.251ZM245.504 398.943C245.504 397.098 245.147 395.672 244.435 394.666C243.722 393.66 242.696 393.157 241.358 393.157C239.571 393.157 238.287 393.987 237.506 395.647V402.503C238.336 404.163 239.63 404.993 241.388 404.993C242.687 404.993 243.697 404.49 244.42 403.484C245.143 402.479 245.504 400.965 245.504 398.943ZM258.219 407.293C256.07 407.293 254.322 406.59 252.975 405.184C251.627 403.768 250.953 401.878 250.953 399.515V399.017C250.953 397.444 251.251 396.043 251.847 394.812C252.452 393.572 253.292 392.605 254.366 391.912C255.45 391.209 256.622 390.857 257.882 390.857C259.942 390.857 261.544 391.536 262.687 392.894C263.829 394.251 264.4 396.194 264.4 398.724V399.852H253.663C253.702 401.414 254.156 402.679 255.025 403.646C255.904 404.603 257.018 405.081 258.365 405.081C259.322 405.081 260.133 404.886 260.797 404.495C261.461 404.104 262.042 403.587 262.54 402.942L264.195 404.231C262.867 406.272 260.875 407.293 258.219 407.293ZM257.882 393.084C256.788 393.084 255.87 393.484 255.128 394.285C254.386 395.076 253.927 396.189 253.751 397.625H261.69V397.42C261.612 396.043 261.241 394.979 260.577 394.227C259.913 393.465 259.015 393.084 257.882 393.084ZM271.227 387.312V391.15H274.186V393.245H271.227V403.074C271.227 403.709 271.358 404.188 271.622 404.51C271.886 404.822 272.335 404.979 272.97 404.979C273.282 404.979 273.712 404.92 274.259 404.803V407C273.546 407.195 272.853 407.293 272.179 407.293C270.968 407.293 270.055 406.927 269.439 406.194C268.824 405.462 268.517 404.422 268.517 403.074V393.245H265.631V391.15H268.517V387.312H271.227ZM281.041 387.312V391.15H284V393.245H281.041V403.074C281.041 403.709 281.173 404.188 281.437 404.51C281.7 404.822 282.149 404.979 282.784 404.979C283.097 404.979 283.526 404.92 284.073 404.803V407C283.36 407.195 282.667 407.293 281.993 407.293C280.782 407.293 279.869 406.927 279.254 406.194C278.639 405.462 278.331 404.422 278.331 403.074V393.245H275.445V391.15H278.331V387.312H281.041ZM293.756 407.293C291.607 407.293 289.859 406.59 288.512 405.184C287.164 403.768 286.49 401.878 286.49 399.515V399.017C286.49 397.444 286.788 396.043 287.384 394.812C287.989 393.572 288.829 392.605 289.903 391.912C290.987 391.209 292.159 390.857 293.419 390.857C295.479 390.857 297.081 391.536 298.224 392.894C299.366 394.251 299.938 396.194 299.938 398.724V399.852H289.2C289.239 401.414 289.693 402.679 290.562 403.646C291.441 404.603 292.555 405.081 293.902 405.081C294.859 405.081 295.67 404.886 296.334 404.495C296.998 404.104 297.579 403.587 298.077 402.942L299.732 404.231C298.404 406.272 296.412 407.293 293.756 407.293ZM293.419 393.084C292.325 393.084 291.407 393.484 290.665 394.285C289.923 395.076 289.464 396.189 289.288 397.625H297.228V397.42C297.149 396.043 296.778 394.979 296.114 394.227C295.45 393.465 294.552 393.084 293.419 393.084ZM310.748 393.582C310.338 393.514 309.894 393.479 309.415 393.479C307.638 393.479 306.432 394.236 305.797 395.75V407H303.087V391.15H305.724L305.768 392.981C306.656 391.565 307.916 390.857 309.547 390.857C310.074 390.857 310.475 390.926 310.748 391.062V393.582ZM64.376 440.081C65.3428 440.081 66.1875 439.788 66.9102 439.202C67.6328 438.616 68.0332 437.884 68.1113 437.005H70.6748C70.626 437.913 70.3135 438.777 69.7373 439.598C69.1611 440.418 68.3896 441.072 67.4229 441.561C66.4658 442.049 65.4502 442.293 64.376 442.293C62.2178 442.293 60.499 441.575 59.2197 440.14C57.9502 438.694 57.3154 436.722 57.3154 434.222V433.768C57.3154 432.225 57.5986 430.853 58.165 429.651C58.7314 428.45 59.542 427.518 60.5967 426.854C61.6611 426.189 62.916 425.857 64.3613 425.857C66.1387 425.857 67.6133 426.39 68.7852 427.454C69.9668 428.519 70.5967 429.9 70.6748 431.6H68.1113C68.0332 430.574 67.6426 429.734 66.9395 429.08C66.2461 428.416 65.3867 428.084 64.3613 428.084C62.9844 428.084 61.915 428.582 61.1533 429.578C60.4014 430.564 60.0254 431.995 60.0254 433.87V434.383C60.0254 436.209 60.4014 437.615 61.1533 438.602C61.9053 439.588 62.9795 440.081 64.376 440.081ZM73.0039 433.929C73.0039 432.376 73.3066 430.979 73.9121 429.739C74.5273 428.499 75.377 427.542 76.4609 426.868C77.5547 426.194 78.7998 425.857 80.1963 425.857C82.3545 425.857 84.0977 426.604 85.4258 428.099C86.7637 429.593 87.4326 431.58 87.4326 434.061V434.251C87.4326 435.794 87.1348 437.181 86.5391 438.411C85.9531 439.632 85.1084 440.584 84.0049 441.268C82.9111 441.951 81.6514 442.293 80.2256 442.293C78.0771 442.293 76.334 441.546 74.9961 440.052C73.668 438.558 73.0039 436.58 73.0039 434.119V433.929ZM75.7285 434.251C75.7285 436.009 76.1338 437.42 76.9443 438.484C77.7646 439.549 78.8584 440.081 80.2256 440.081C81.6025 440.081 82.6963 439.544 83.5068 438.47C84.3174 437.386 84.7227 435.872 84.7227 433.929C84.7227 432.19 84.3076 430.784 83.4775 429.71C82.6572 428.626 81.5635 428.084 80.1963 428.084C78.8584 428.084 77.7793 428.616 76.959 429.681C76.1387 430.745 75.7285 432.269 75.7285 434.251ZM93.3945 426.15L93.4824 428.143C94.6934 426.619 96.2754 425.857 98.2285 425.857C101.578 425.857 103.268 427.747 103.297 431.526V442H100.587V431.512C100.577 430.369 100.313 429.524 99.7959 428.978C99.2881 428.431 98.4922 428.157 97.4082 428.157C96.5293 428.157 95.7578 428.392 95.0938 428.86C94.4297 429.329 93.9121 429.944 93.541 430.706V442H90.8311V426.15H93.3945ZM109.947 426.15L110.035 428.143C111.246 426.619 112.828 425.857 114.781 425.857C118.131 425.857 119.82 427.747 119.85 431.526V442H117.14V431.512C117.13 430.369 116.866 429.524 116.349 428.978C115.841 428.431 115.045 428.157 113.961 428.157C113.082 428.157 112.311 428.392 111.646 428.86C110.982 429.329 110.465 429.944 110.094 430.706V442H107.384V426.15H109.947ZM130.514 442.293C128.365 442.293 126.617 441.59 125.27 440.184C123.922 438.768 123.248 436.878 123.248 434.515V434.017C123.248 432.444 123.546 431.043 124.142 429.812C124.747 428.572 125.587 427.605 126.661 426.912C127.745 426.209 128.917 425.857 130.177 425.857C132.237 425.857 133.839 426.536 134.981 427.894C136.124 429.251 136.695 431.194 136.695 433.724V434.852H125.958C125.997 436.414 126.451 437.679 127.32 438.646C128.199 439.603 129.312 440.081 130.66 440.081C131.617 440.081 132.428 439.886 133.092 439.495C133.756 439.104 134.337 438.587 134.835 437.942L136.49 439.231C135.162 441.272 133.17 442.293 130.514 442.293ZM130.177 428.084C129.083 428.084 128.165 428.484 127.423 429.285C126.681 430.076 126.222 431.189 126.046 432.625H133.985V432.42C133.907 431.043 133.536 429.979 132.872 429.227C132.208 428.465 131.31 428.084 130.177 428.084ZM146.202 440.081C147.169 440.081 148.014 439.788 148.736 439.202C149.459 438.616 149.859 437.884 149.938 437.005H152.501C152.452 437.913 152.14 438.777 151.563 439.598C150.987 440.418 150.216 441.072 149.249 441.561C148.292 442.049 147.276 442.293 146.202 442.293C144.044 442.293 142.325 441.575 141.046 440.14C139.776 438.694 139.142 436.722 139.142 434.222V433.768C139.142 432.225 139.425 430.853 139.991 429.651C140.558 428.45 141.368 427.518 142.423 426.854C143.487 426.189 144.742 425.857 146.188 425.857C147.965 425.857 149.439 426.39 150.611 427.454C151.793 428.519 152.423 429.9 152.501 431.6H149.938C149.859 430.574 149.469 429.734 148.766 429.08C148.072 428.416 147.213 428.084 146.188 428.084C144.811 428.084 143.741 428.582 142.979 429.578C142.228 430.564 141.852 431.995 141.852 433.87V434.383C141.852 436.209 142.228 437.615 142.979 438.602C143.731 439.588 144.806 440.081 146.202 440.081ZM159.225 422.312V426.15H162.184V428.245H159.225V438.074C159.225 438.709 159.356 439.188 159.62 439.51C159.884 439.822 160.333 439.979 160.968 439.979C161.28 439.979 161.71 439.92 162.257 439.803V442C161.544 442.195 160.851 442.293 160.177 442.293C158.966 442.293 158.053 441.927 157.438 441.194C156.822 440.462 156.515 439.422 156.515 438.074V428.245H153.629V426.15H156.515V422.312H159.225ZM179.161 440.081C180.128 440.081 180.973 439.788 181.695 439.202C182.418 438.616 182.818 437.884 182.896 437.005H185.46C185.411 437.913 185.099 438.777 184.522 439.598C183.946 440.418 183.175 441.072 182.208 441.561C181.251 442.049 180.235 442.293 179.161 442.293C177.003 442.293 175.284 441.575 174.005 440.14C172.735 438.694 172.101 436.722 172.101 434.222V433.768C172.101 432.225 172.384 430.853 172.95 429.651C173.517 428.45 174.327 427.518 175.382 426.854C176.446 426.189 177.701 425.857 179.146 425.857C180.924 425.857 182.398 426.39 183.57 427.454C184.752 428.519 185.382 429.9 185.46 431.6H182.896C182.818 430.574 182.428 429.734 181.725 429.08C181.031 428.416 180.172 428.084 179.146 428.084C177.77 428.084 176.7 428.582 175.938 429.578C175.187 430.564 174.811 431.995 174.811 433.87V434.383C174.811 436.209 175.187 437.615 175.938 438.602C176.69 439.588 177.765 440.081 179.161 440.081ZM198.292 440.433C197.237 441.673 195.689 442.293 193.648 442.293C191.959 442.293 190.67 441.805 189.781 440.828C188.902 439.842 188.458 438.387 188.448 436.463V426.15H191.158V436.39C191.158 438.792 192.135 439.993 194.088 439.993C196.158 439.993 197.535 439.222 198.219 437.679V426.15H200.929V442H198.351L198.292 440.433ZM214.288 437.796C214.288 437.063 214.01 436.497 213.453 436.097C212.906 435.687 211.944 435.335 210.567 435.042C209.2 434.749 208.111 434.397 207.301 433.987C206.5 433.577 205.904 433.089 205.514 432.522C205.133 431.956 204.942 431.282 204.942 430.501C204.942 429.202 205.489 428.104 206.583 427.205C207.687 426.307 209.093 425.857 210.802 425.857C212.599 425.857 214.054 426.321 215.167 427.249C216.29 428.177 216.852 429.363 216.852 430.809H214.127C214.127 430.066 213.81 429.427 213.175 428.89C212.55 428.353 211.759 428.084 210.802 428.084C209.815 428.084 209.044 428.299 208.487 428.729C207.931 429.158 207.652 429.72 207.652 430.413C207.652 431.067 207.911 431.561 208.429 431.893C208.946 432.225 209.879 432.542 211.227 432.845C212.584 433.147 213.683 433.509 214.522 433.929C215.362 434.349 215.982 434.856 216.383 435.452C216.793 436.038 216.998 436.756 216.998 437.605C216.998 439.021 216.432 440.159 215.299 441.019C214.166 441.868 212.696 442.293 210.89 442.293C209.62 442.293 208.497 442.068 207.521 441.619C206.544 441.17 205.777 440.545 205.221 439.744C204.674 438.934 204.4 438.06 204.4 437.122H207.11C207.159 438.03 207.521 438.753 208.194 439.29C208.878 439.817 209.776 440.081 210.89 440.081C211.915 440.081 212.735 439.876 213.351 439.466C213.976 439.046 214.288 438.489 214.288 437.796ZM224.205 422.312V426.15H227.164V428.245H224.205V438.074C224.205 438.709 224.337 439.188 224.601 439.51C224.864 439.822 225.313 439.979 225.948 439.979C226.261 439.979 226.69 439.92 227.237 439.803V442C226.524 442.195 225.831 442.293 225.157 442.293C223.946 442.293 223.033 441.927 222.418 441.194C221.803 440.462 221.495 439.422 221.495 438.074V428.245H218.609V426.15H221.495V422.312H224.205ZM229.332 433.929C229.332 432.376 229.635 430.979 230.24 429.739C230.855 428.499 231.705 427.542 232.789 426.868C233.883 426.194 235.128 425.857 236.524 425.857C238.683 425.857 240.426 426.604 241.754 428.099C243.092 429.593 243.761 431.58 243.761 434.061V434.251C243.761 435.794 243.463 437.181 242.867 438.411C242.281 439.632 241.437 440.584 240.333 441.268C239.239 441.951 237.979 442.293 236.554 442.293C234.405 442.293 232.662 441.546 231.324 440.052C229.996 438.558 229.332 436.58 229.332 434.119V433.929ZM232.057 434.251C232.057 436.009 232.462 437.42 233.272 438.484C234.093 439.549 235.187 440.081 236.554 440.081C237.931 440.081 239.024 439.544 239.835 438.47C240.646 437.386 241.051 435.872 241.051 433.929C241.051 432.19 240.636 430.784 239.806 429.71C238.985 428.626 237.892 428.084 236.524 428.084C235.187 428.084 234.107 428.616 233.287 429.681C232.467 430.745 232.057 432.269 232.057 434.251ZM249.708 426.15L249.781 427.908C250.943 426.541 252.511 425.857 254.483 425.857C256.7 425.857 258.209 426.707 259.01 428.406C259.537 427.645 260.221 427.029 261.061 426.561C261.91 426.092 262.911 425.857 264.063 425.857C267.54 425.857 269.308 427.698 269.366 431.38V442H266.656V431.541C266.656 430.408 266.397 429.563 265.88 429.007C265.362 428.44 264.493 428.157 263.272 428.157C262.267 428.157 261.432 428.46 260.768 429.065C260.104 429.661 259.718 430.467 259.61 431.482V442H256.886V431.614C256.886 429.31 255.758 428.157 253.502 428.157C251.725 428.157 250.509 428.914 249.854 430.428V442H247.145V426.15H249.708ZM280.045 442.293C277.896 442.293 276.148 441.59 274.801 440.184C273.453 438.768 272.779 436.878 272.779 434.515V434.017C272.779 432.444 273.077 431.043 273.673 429.812C274.278 428.572 275.118 427.605 276.192 426.912C277.276 426.209 278.448 425.857 279.708 425.857C281.769 425.857 283.37 426.536 284.513 427.894C285.655 429.251 286.227 431.194 286.227 433.724V434.852H275.489C275.528 436.414 275.982 437.679 276.852 438.646C277.73 439.603 278.844 440.081 280.191 440.081C281.148 440.081 281.959 439.886 282.623 439.495C283.287 439.104 283.868 438.587 284.366 437.942L286.021 439.231C284.693 441.272 282.701 442.293 280.045 442.293ZM279.708 428.084C278.614 428.084 277.696 428.484 276.954 429.285C276.212 430.076 275.753 431.189 275.577 432.625H283.517V432.42C283.438 431.043 283.067 429.979 282.403 429.227C281.739 428.465 280.841 428.084 279.708 428.084ZM297.037 428.582C296.627 428.514 296.183 428.479 295.704 428.479C293.927 428.479 292.721 429.236 292.086 430.75V442H289.376V426.15H292.013L292.057 427.981C292.945 426.565 294.205 425.857 295.836 425.857C296.363 425.857 296.764 425.926 297.037 426.062V428.582ZM308.771 437.796C308.771 437.063 308.492 436.497 307.936 436.097C307.389 435.687 306.427 435.335 305.05 435.042C303.683 434.749 302.594 434.397 301.783 433.987C300.982 433.577 300.387 433.089 299.996 432.522C299.615 431.956 299.425 431.282 299.425 430.501C299.425 429.202 299.972 428.104 301.065 427.205C302.169 426.307 303.575 425.857 305.284 425.857C307.081 425.857 308.536 426.321 309.649 427.249C310.772 428.177 311.334 429.363 311.334 430.809H308.609C308.609 430.066 308.292 429.427 307.657 428.89C307.032 428.353 306.241 428.084 305.284 428.084C304.298 428.084 303.526 428.299 302.97 428.729C302.413 429.158 302.135 429.72 302.135 430.413C302.135 431.067 302.394 431.561 302.911 431.893C303.429 432.225 304.361 432.542 305.709 432.845C307.066 433.147 308.165 433.509 309.005 433.929C309.845 434.349 310.465 434.856 310.865 435.452C311.275 436.038 311.48 436.756 311.48 437.605C311.48 439.021 310.914 440.159 309.781 441.019C308.648 441.868 307.179 442.293 305.372 442.293C304.103 442.293 302.979 442.068 302.003 441.619C301.026 441.17 300.26 440.545 299.703 439.744C299.156 438.934 298.883 438.06 298.883 437.122H301.593C301.642 438.03 302.003 438.753 302.677 439.29C303.36 439.817 304.259 440.081 305.372 440.081C306.397 440.081 307.218 439.876 307.833 439.466C308.458 439.046 308.771 438.489 308.771 437.796ZM326.129 422.312V426.15H329.088V428.245H326.129V438.074C326.129 438.709 326.261 439.188 326.524 439.51C326.788 439.822 327.237 439.979 327.872 439.979C328.185 439.979 328.614 439.92 329.161 439.803V442C328.448 442.195 327.755 442.293 327.081 442.293C325.87 442.293 324.957 441.927 324.342 441.194C323.727 440.462 323.419 439.422 323.419 438.074V428.245H320.533V426.15H323.419V422.312H326.129ZM331.256 433.929C331.256 432.376 331.559 430.979 332.164 429.739C332.779 428.499 333.629 427.542 334.713 426.868C335.807 426.194 337.052 425.857 338.448 425.857C340.606 425.857 342.35 426.604 343.678 428.099C345.016 429.593 345.685 431.58 345.685 434.061V434.251C345.685 435.794 345.387 437.181 344.791 438.411C344.205 439.632 343.36 440.584 342.257 441.268C341.163 441.951 339.903 442.293 338.478 442.293C336.329 442.293 334.586 441.546 333.248 440.052C331.92 438.558 331.256 436.58 331.256 434.119V433.929ZM333.98 434.251C333.98 436.009 334.386 437.42 335.196 438.484C336.017 439.549 337.11 440.081 338.478 440.081C339.854 440.081 340.948 439.544 341.759 438.47C342.569 437.386 342.975 435.872 342.975 433.929C342.975 432.19 342.56 430.784 341.729 429.71C340.909 428.626 339.815 428.084 338.448 428.084C337.11 428.084 336.031 428.616 335.211 429.681C334.391 430.745 333.98 432.269 333.98 434.251ZM95.0791 477H92.3691V454.5H95.0791V477ZM98.7119 468.929C98.7119 467.376 99.0146 465.979 99.6201 464.739C100.235 463.499 101.085 462.542 102.169 461.868C103.263 461.194 104.508 460.857 105.904 460.857C108.062 460.857 109.806 461.604 111.134 463.099C112.472 464.593 113.141 466.58 113.141 469.061V469.251C113.141 470.794 112.843 472.181 112.247 473.411C111.661 474.632 110.816 475.584 109.713 476.268C108.619 476.951 107.359 477.293 105.934 477.293C103.785 477.293 102.042 476.546 100.704 475.052C99.376 473.558 98.7119 471.58 98.7119 469.119V468.929ZM101.437 469.251C101.437 471.009 101.842 472.42 102.652 473.484C103.473 474.549 104.566 475.081 105.934 475.081C107.311 475.081 108.404 474.544 109.215 473.47C110.025 472.386 110.431 470.872 110.431 468.929C110.431 467.19 110.016 465.784 109.186 464.71C108.365 463.626 107.271 463.084 105.904 463.084C104.566 463.084 103.487 463.616 102.667 464.681C101.847 465.745 101.437 467.269 101.437 469.251ZM122.896 475.081C123.863 475.081 124.708 474.788 125.431 474.202C126.153 473.616 126.554 472.884 126.632 472.005H129.195C129.146 472.913 128.834 473.777 128.258 474.598C127.682 475.418 126.91 476.072 125.943 476.561C124.986 477.049 123.971 477.293 122.896 477.293C120.738 477.293 119.02 476.575 117.74 475.14C116.471 473.694 115.836 471.722 115.836 469.222V468.768C115.836 467.225 116.119 465.853 116.686 464.651C117.252 463.45 118.062 462.518 119.117 461.854C120.182 461.189 121.437 460.857 122.882 460.857C124.659 460.857 126.134 461.39 127.306 462.454C128.487 463.519 129.117 464.9 129.195 466.6H126.632C126.554 465.574 126.163 464.734 125.46 464.08C124.767 463.416 123.907 463.084 122.882 463.084C121.505 463.084 120.436 463.582 119.674 464.578C118.922 465.564 118.546 466.995 118.546 468.87V469.383C118.546 471.209 118.922 472.615 119.674 473.602C120.426 474.588 121.5 475.081 122.896 475.081ZM142.027 477C141.871 476.688 141.744 476.131 141.646 475.33C140.387 476.639 138.883 477.293 137.135 477.293C135.572 477.293 134.288 476.854 133.282 475.975C132.286 475.086 131.788 473.963 131.788 472.605C131.788 470.955 132.413 469.676 133.663 468.768C134.923 467.85 136.69 467.391 138.966 467.391H141.603V466.146C141.603 465.198 141.319 464.446 140.753 463.89C140.187 463.323 139.352 463.04 138.248 463.04C137.281 463.04 136.471 463.284 135.816 463.772C135.162 464.261 134.835 464.852 134.835 465.545H132.11C132.11 464.754 132.389 463.992 132.945 463.26C133.512 462.518 134.273 461.932 135.23 461.502C136.197 461.072 137.257 460.857 138.409 460.857C140.235 460.857 141.666 461.316 142.701 462.234C143.736 463.143 144.273 464.397 144.312 465.999V473.294C144.312 474.749 144.498 475.906 144.869 476.766V477H142.027ZM137.53 474.935C138.38 474.935 139.186 474.715 139.947 474.275C140.709 473.836 141.261 473.265 141.603 472.562V469.31H139.479C136.158 469.31 134.498 470.281 134.498 472.225C134.498 473.074 134.781 473.738 135.348 474.217C135.914 474.695 136.642 474.935 137.53 474.935ZM151.505 477H148.795V454.5H151.505V477ZM170.958 463.582C170.548 463.514 170.104 463.479 169.625 463.479C167.848 463.479 166.642 464.236 166.007 465.75V477H163.297V461.15H165.934L165.978 462.981C166.866 461.565 168.126 460.857 169.757 460.857C170.284 460.857 170.685 460.926 170.958 461.062V463.582ZM179.747 477.293C177.599 477.293 175.851 476.59 174.503 475.184C173.155 473.768 172.481 471.878 172.481 469.515V469.017C172.481 467.444 172.779 466.043 173.375 464.812C173.98 463.572 174.82 462.605 175.895 461.912C176.979 461.209 178.15 460.857 179.41 460.857C181.471 460.857 183.072 461.536 184.215 462.894C185.357 464.251 185.929 466.194 185.929 468.724V469.852H175.191C175.23 471.414 175.685 472.679 176.554 473.646C177.433 474.603 178.546 475.081 179.894 475.081C180.851 475.081 181.661 474.886 182.325 474.495C182.989 474.104 183.57 473.587 184.068 472.942L185.724 474.231C184.396 476.272 182.403 477.293 179.747 477.293ZM179.41 463.084C178.316 463.084 177.398 463.484 176.656 464.285C175.914 465.076 175.455 466.189 175.279 467.625H183.219V467.42C183.141 466.043 182.77 464.979 182.105 464.227C181.441 463.465 180.543 463.084 179.41 463.084ZM198.307 472.796C198.307 472.063 198.028 471.497 197.472 471.097C196.925 470.687 195.963 470.335 194.586 470.042C193.219 469.749 192.13 469.397 191.319 468.987C190.519 468.577 189.923 468.089 189.532 467.522C189.151 466.956 188.961 466.282 188.961 465.501C188.961 464.202 189.508 463.104 190.602 462.205C191.705 461.307 193.111 460.857 194.82 460.857C196.617 460.857 198.072 461.321 199.186 462.249C200.309 463.177 200.87 464.363 200.87 465.809H198.146C198.146 465.066 197.828 464.427 197.193 463.89C196.568 463.353 195.777 463.084 194.82 463.084C193.834 463.084 193.062 463.299 192.506 463.729C191.949 464.158 191.671 464.72 191.671 465.413C191.671 466.067 191.93 466.561 192.447 466.893C192.965 467.225 193.897 467.542 195.245 467.845C196.603 468.147 197.701 468.509 198.541 468.929C199.381 469.349 200.001 469.856 200.401 470.452C200.812 471.038 201.017 471.756 201.017 472.605C201.017 474.021 200.45 475.159 199.317 476.019C198.185 476.868 196.715 477.293 194.908 477.293C193.639 477.293 192.516 477.068 191.539 476.619C190.562 476.17 189.796 475.545 189.239 474.744C188.692 473.934 188.419 473.06 188.419 472.122H191.129C191.178 473.03 191.539 473.753 192.213 474.29C192.896 474.817 193.795 475.081 194.908 475.081C195.934 475.081 196.754 474.876 197.369 474.466C197.994 474.046 198.307 473.489 198.307 472.796ZM208.224 457.312V461.15H211.183V463.245H208.224V473.074C208.224 473.709 208.355 474.188 208.619 474.51C208.883 474.822 209.332 474.979 209.967 474.979C210.279 474.979 210.709 474.92 211.256 474.803V477C210.543 477.195 209.85 477.293 209.176 477.293C207.965 477.293 207.052 476.927 206.437 476.194C205.821 475.462 205.514 474.422 205.514 473.074V463.245H202.628V461.15H205.514V457.312H208.224ZM224.146 477C223.99 476.688 223.863 476.131 223.766 475.33C222.506 476.639 221.002 477.293 219.254 477.293C217.691 477.293 216.407 476.854 215.401 475.975C214.405 475.086 213.907 473.963 213.907 472.605C213.907 470.955 214.532 469.676 215.782 468.768C217.042 467.85 218.81 467.391 221.085 467.391H223.722V466.146C223.722 465.198 223.438 464.446 222.872 463.89C222.306 463.323 221.471 463.04 220.367 463.04C219.4 463.04 218.59 463.284 217.936 463.772C217.281 464.261 216.954 464.852 216.954 465.545H214.229C214.229 464.754 214.508 463.992 215.064 463.26C215.631 462.518 216.393 461.932 217.35 461.502C218.316 461.072 219.376 460.857 220.528 460.857C222.354 460.857 223.785 461.316 224.82 462.234C225.855 463.143 226.393 464.397 226.432 465.999V473.294C226.432 474.749 226.617 475.906 226.988 476.766V477H224.146ZM219.649 474.935C220.499 474.935 221.305 474.715 222.066 474.275C222.828 473.836 223.38 473.265 223.722 472.562V469.31H221.598C218.277 469.31 216.617 470.281 216.617 472.225C216.617 473.074 216.9 473.738 217.467 474.217C218.033 474.695 218.761 474.935 219.649 474.935ZM240.465 475.433C239.41 476.673 237.862 477.293 235.821 477.293C234.132 477.293 232.843 476.805 231.954 475.828C231.075 474.842 230.631 473.387 230.621 471.463V461.15H233.331V471.39C233.331 473.792 234.308 474.993 236.261 474.993C238.331 474.993 239.708 474.222 240.392 472.679V461.15H243.102V477H240.523L240.465 475.433ZM254.894 463.582C254.483 463.514 254.039 463.479 253.561 463.479C251.783 463.479 250.577 464.236 249.942 465.75V477H247.232V461.15H249.869L249.913 462.981C250.802 461.565 252.062 460.857 253.692 460.857C254.22 460.857 254.62 460.926 254.894 461.062V463.582ZM266.598 477C266.441 476.688 266.314 476.131 266.217 475.33C264.957 476.639 263.453 477.293 261.705 477.293C260.143 477.293 258.858 476.854 257.853 475.975C256.856 475.086 256.358 473.963 256.358 472.605C256.358 470.955 256.983 469.676 258.233 468.768C259.493 467.85 261.261 467.391 263.536 467.391H266.173V466.146C266.173 465.198 265.89 464.446 265.323 463.89C264.757 463.323 263.922 463.04 262.818 463.04C261.852 463.04 261.041 463.284 260.387 463.772C259.732 464.261 259.405 464.852 259.405 465.545H256.681C256.681 464.754 256.959 463.992 257.516 463.26C258.082 462.518 258.844 461.932 259.801 461.502C260.768 461.072 261.827 460.857 262.979 460.857C264.806 460.857 266.236 461.316 267.271 462.234C268.307 463.143 268.844 464.397 268.883 465.999V473.294C268.883 474.749 269.068 475.906 269.439 476.766V477H266.598ZM262.101 474.935C262.95 474.935 263.756 474.715 264.518 474.275C265.279 473.836 265.831 473.265 266.173 472.562V469.31H264.049C260.729 469.31 259.068 470.281 259.068 472.225C259.068 473.074 259.352 473.738 259.918 474.217C260.484 474.695 261.212 474.935 262.101 474.935ZM275.694 461.15L275.782 463.143C276.993 461.619 278.575 460.857 280.528 460.857C283.878 460.857 285.567 462.747 285.597 466.526V477H282.887V466.512C282.877 465.369 282.613 464.524 282.096 463.978C281.588 463.431 280.792 463.157 279.708 463.157C278.829 463.157 278.058 463.392 277.394 463.86C276.729 464.329 276.212 464.944 275.841 465.706V477H273.131V461.15H275.694ZM293.36 457.312V461.15H296.319V463.245H293.36V473.074C293.36 473.709 293.492 474.188 293.756 474.51C294.02 474.822 294.469 474.979 295.104 474.979C295.416 474.979 295.846 474.92 296.393 474.803V477C295.68 477.195 294.986 477.293 294.312 477.293C293.102 477.293 292.188 476.927 291.573 476.194C290.958 475.462 290.65 474.422 290.65 473.074V463.245H287.765V461.15H290.65V457.312H293.36ZM308.727 472.796C308.727 472.063 308.448 471.497 307.892 471.097C307.345 470.687 306.383 470.335 305.006 470.042C303.639 469.749 302.55 469.397 301.739 468.987C300.938 468.577 300.343 468.089 299.952 467.522C299.571 466.956 299.381 466.282 299.381 465.501C299.381 464.202 299.928 463.104 301.021 462.205C302.125 461.307 303.531 460.857 305.24 460.857C307.037 460.857 308.492 461.321 309.605 462.249C310.729 463.177 311.29 464.363 311.29 465.809H308.565C308.565 465.066 308.248 464.427 307.613 463.89C306.988 463.353 306.197 463.084 305.24 463.084C304.254 463.084 303.482 463.299 302.926 463.729C302.369 464.158 302.091 464.72 302.091 465.413C302.091 466.067 302.35 466.561 302.867 466.893C303.385 467.225 304.317 467.542 305.665 467.845C307.022 468.147 308.121 468.509 308.961 468.929C309.801 469.349 310.421 469.856 310.821 470.452C311.231 471.038 311.437 471.756 311.437 472.605C311.437 474.021 310.87 475.159 309.737 476.019C308.604 476.868 307.135 477.293 305.328 477.293C304.059 477.293 302.936 477.068 301.959 476.619C300.982 476.17 300.216 475.545 299.659 474.744C299.112 473.934 298.839 473.06 298.839 472.122H301.549C301.598 473.03 301.959 473.753 302.633 474.29C303.316 474.817 304.215 475.081 305.328 475.081C306.354 475.081 307.174 474.876 307.789 474.466C308.414 474.046 308.727 473.489 308.727 472.796Z" fill="black"/>
<ellipse cx="201.5" cy="115" rx="77.5" ry="76" fill="#FF8C32"/>
<path fill-rule="evenodd" clip-rule="evenodd" d="M206.583 110.5H247.833V119.5H206.583V160H197.417V119.5H156.167V110.5H197.417V70H206.583V110.5Z" fill="white"/>
<path d="M138.898 258.426C138.898 261.225 138.404 263.68 137.414 265.789C136.424 267.898 135.005 269.526 133.156 270.672C131.32 271.818 129.211 272.391 126.828 272.391C124.471 272.391 122.368 271.824 120.52 270.691C118.671 269.559 117.238 267.944 116.223 265.848C115.207 263.738 114.693 261.316 114.68 258.582V257.176C114.68 254.376 115.181 251.915 116.184 249.793C117.199 247.658 118.625 246.023 120.461 244.891C122.31 243.745 124.419 243.172 126.789 243.172C129.159 243.172 131.262 243.745 133.098 244.891C134.947 246.023 136.372 247.658 137.375 249.793C138.391 251.915 138.898 254.37 138.898 257.156V258.426ZM132.961 257.137C132.961 254.155 132.427 251.889 131.359 250.34C130.292 248.79 128.768 248.016 126.789 248.016C124.823 248.016 123.306 248.784 122.238 250.32C121.171 251.844 120.63 254.083 120.617 257.039V258.426C120.617 261.329 121.151 263.582 122.219 265.184C123.286 266.785 124.823 267.586 126.828 267.586C128.794 267.586 130.305 266.818 131.359 265.281C132.414 263.732 132.948 261.479 132.961 258.523V257.137ZM155.441 269.852C154.048 271.544 152.121 272.391 149.66 272.391C147.395 272.391 145.663 271.74 144.465 270.438C143.28 269.135 142.674 267.228 142.648 264.715V250.867H148.293V264.52C148.293 266.72 149.296 267.82 151.301 267.82C153.215 267.82 154.53 267.156 155.246 265.828V250.867H160.91V272H155.598L155.441 269.852ZM177.043 256.16C176.275 256.056 175.598 256.004 175.012 256.004C172.876 256.004 171.477 256.727 170.812 258.172V272H165.168V250.867H170.5L170.656 253.387C171.789 251.447 173.358 250.477 175.363 250.477C175.988 250.477 176.574 250.561 177.121 250.73L177.043 256.16ZM212.609 268.406C211.555 269.669 210.064 270.652 208.137 271.355C206.21 272.046 204.074 272.391 201.73 272.391C199.27 272.391 197.108 271.857 195.246 270.789C193.397 269.708 191.965 268.146 190.949 266.102C189.947 264.057 189.432 261.655 189.406 258.895V256.961C189.406 254.122 189.882 251.668 190.832 249.598C191.796 247.514 193.176 245.926 194.973 244.832C196.783 243.725 198.898 243.172 201.32 243.172C204.693 243.172 207.329 243.979 209.23 245.594C211.132 247.195 212.258 249.533 212.609 252.605H206.906C206.646 250.978 206.066 249.786 205.168 249.031C204.283 248.276 203.059 247.898 201.496 247.898C199.504 247.898 197.987 248.647 196.945 250.145C195.904 251.642 195.376 253.868 195.363 256.824V258.641C195.363 261.622 195.93 263.875 197.062 265.398C198.195 266.922 199.855 267.684 202.043 267.684C204.243 267.684 205.812 267.215 206.75 266.277V261.375H201.418V257.059H212.609V268.406ZM216.125 261.238C216.125 259.142 216.529 257.273 217.336 255.633C218.143 253.992 219.302 252.723 220.812 251.824C222.336 250.926 224.1 250.477 226.105 250.477C228.957 250.477 231.281 251.349 233.078 253.094C234.888 254.839 235.897 257.208 236.105 260.203L236.145 261.648C236.145 264.891 235.24 267.495 233.43 269.461C231.62 271.414 229.191 272.391 226.145 272.391C223.098 272.391 220.663 271.414 218.84 269.461C217.03 267.508 216.125 264.852 216.125 261.492V261.238ZM221.77 261.648C221.77 263.654 222.147 265.19 222.902 266.258C223.658 267.312 224.738 267.84 226.145 267.84C227.512 267.84 228.579 267.319 229.348 266.277C230.116 265.223 230.5 263.543 230.5 261.238C230.5 259.272 230.116 257.749 229.348 256.668C228.579 255.587 227.499 255.047 226.105 255.047C224.725 255.047 223.658 255.587 222.902 256.668C222.147 257.736 221.77 259.396 221.77 261.648ZM251.867 272C251.607 271.492 251.418 270.861 251.301 270.105C249.934 271.629 248.156 272.391 245.969 272.391C243.898 272.391 242.18 271.792 240.812 270.594C239.458 269.396 238.781 267.885 238.781 266.062C238.781 263.823 239.608 262.104 241.262 260.906C242.928 259.708 245.331 259.103 248.469 259.09H251.066V257.879C251.066 256.902 250.812 256.121 250.305 255.535C249.81 254.949 249.022 254.656 247.941 254.656C246.991 254.656 246.242 254.884 245.695 255.34C245.161 255.796 244.895 256.421 244.895 257.215H239.25C239.25 255.991 239.628 254.858 240.383 253.816C241.138 252.775 242.206 251.961 243.586 251.375C244.966 250.776 246.516 250.477 248.234 250.477C250.839 250.477 252.902 251.134 254.426 252.449C255.962 253.751 256.73 255.587 256.73 257.957V267.117C256.743 269.122 257.023 270.639 257.57 271.668V272H251.867ZM247.199 268.074C248.033 268.074 248.801 267.892 249.504 267.527C250.207 267.15 250.728 266.648 251.066 266.023V262.391H248.957C246.132 262.391 244.628 263.367 244.445 265.32L244.426 265.652C244.426 266.355 244.673 266.935 245.168 267.391C245.663 267.846 246.34 268.074 247.199 268.074ZM267.023 272H261.359V242H267.023V272ZM283.137 266.16C283.137 265.47 282.792 264.93 282.102 264.539C281.424 264.135 280.331 263.777 278.82 263.465C273.794 262.41 271.281 260.275 271.281 257.059C271.281 255.184 272.056 253.621 273.605 252.371C275.168 251.108 277.206 250.477 279.719 250.477C282.401 250.477 284.543 251.108 286.145 252.371C287.759 253.634 288.566 255.275 288.566 257.293H282.922C282.922 256.486 282.661 255.822 282.141 255.301C281.62 254.767 280.806 254.5 279.699 254.5C278.749 254.5 278.013 254.715 277.492 255.145C276.971 255.574 276.711 256.121 276.711 256.785C276.711 257.41 277.004 257.918 277.59 258.309C278.189 258.686 279.191 259.018 280.598 259.305C282.004 259.578 283.189 259.891 284.152 260.242C287.134 261.336 288.625 263.23 288.625 265.926C288.625 267.853 287.798 269.415 286.145 270.613C284.491 271.798 282.355 272.391 279.738 272.391C277.967 272.391 276.392 272.078 275.012 271.453C273.645 270.815 272.57 269.949 271.789 268.855C271.008 267.749 270.617 266.557 270.617 265.281H275.969C276.021 266.284 276.392 267.052 277.082 267.586C277.772 268.12 278.697 268.387 279.855 268.387C280.936 268.387 281.75 268.185 282.297 267.781C282.857 267.365 283.137 266.824 283.137 266.16Z" fill="black"/>
<defs>
<filter id="filter0_d" x="0" y="0" width="403" height="667" filterUnits="userSpaceOnUse" color-interpolation-filters="sRGB">
<feFlood flood-opacity="0" result="BackgroundImageFix"/>
<feColorMatrix in="SourceAlpha" type="matrix" values="0 0 0 0 0 0 0 0 0 0 0 0 0 0 0 0 0 0 127 0"/>
<feOffset dy="4"/>
<feGaussianBlur stdDeviation="2"/>
<feColorMatrix type="matrix" values="0 0 0 0 0 0 0 0 0 0 0 0 0 0 0 0 0 0 0.25 0"/>
<feBlend mode="normal" in2="BackgroundImageFix" result="effect1_dropShadow"/>
<feBlend mode="normal" in="SourceGraphic" in2="effect1_dropShadow" result="shape"/>
</filter>
</defs>
</svg>
