<svg width="403" height="724" viewBox="0 0 403 724" fill="none" xmlns="http://www.w3.org/2000/svg">
<g filter="url(#filter0_d)">
<rect x="4" width="395" height="659" rx="35" fill="white"/>
<rect x="4.5" y="0.5" width="394" height="658" rx="34.5" stroke="black"/>
</g>
<path d="M125.431 404.986H118.575V424H115.777V404.986H108.937V402.672H125.431V404.986ZM130.88 410.069C132.081 408.595 133.644 407.857 135.567 407.857C138.917 407.857 140.606 409.747 140.636 413.526V424H137.926V413.512C137.916 412.369 137.652 411.524 137.135 410.978C136.627 410.431 135.831 410.157 134.747 410.157C133.868 410.157 133.097 410.392 132.433 410.86C131.769 411.329 131.251 411.944 130.88 412.706V424H128.17V401.5H130.88V410.069ZM151.271 424.293C149.122 424.293 147.374 423.59 146.026 422.184C144.679 420.768 144.005 418.878 144.005 416.515V416.017C144.005 414.444 144.303 413.043 144.898 411.812C145.504 410.572 146.344 409.605 147.418 408.912C148.502 408.209 149.674 407.857 150.934 407.857C152.994 407.857 154.596 408.536 155.738 409.894C156.881 411.251 157.452 413.194 157.452 415.724V416.852H146.715C146.754 418.414 147.208 419.679 148.077 420.646C148.956 421.603 150.069 422.081 151.417 422.081C152.374 422.081 153.185 421.886 153.849 421.495C154.513 421.104 155.094 420.587 155.592 419.942L157.247 421.231C155.919 423.272 153.927 424.293 151.271 424.293ZM150.934 410.084C149.84 410.084 148.922 410.484 148.18 411.285C147.438 412.076 146.979 413.189 146.803 414.625H154.742V414.42C154.664 413.043 154.293 411.979 153.629 411.227C152.965 410.465 152.066 410.084 150.934 410.084ZM184.156 417.232C183.893 419.488 183.058 421.231 181.651 422.462C180.255 423.683 178.395 424.293 176.07 424.293C173.551 424.293 171.529 423.39 170.006 421.583C168.492 419.776 167.735 417.359 167.735 414.332V412.281C167.735 410.299 168.087 408.556 168.79 407.052C169.503 405.548 170.509 404.396 171.808 403.595C173.106 402.784 174.61 402.379 176.319 402.379C178.585 402.379 180.401 403.014 181.769 404.283C183.136 405.543 183.932 407.291 184.156 409.527H181.329C181.085 407.828 180.553 406.598 179.732 405.836C178.922 405.074 177.784 404.693 176.319 404.693C174.522 404.693 173.111 405.357 172.086 406.686C171.07 408.014 170.562 409.903 170.562 412.354V414.42C170.562 416.734 171.046 418.575 172.013 419.942C172.979 421.31 174.332 421.993 176.07 421.993C177.633 421.993 178.829 421.642 179.659 420.938C180.499 420.226 181.056 418.99 181.329 417.232H184.156ZM204.415 414.024C204.415 416.114 204.063 417.94 203.36 419.503C202.657 421.056 201.661 422.242 200.372 423.062C199.083 423.883 197.579 424.293 195.86 424.293C194.181 424.293 192.691 423.883 191.393 423.062C190.094 422.232 189.083 421.056 188.36 419.532C187.647 417.999 187.281 416.227 187.262 414.215V412.677C187.262 410.626 187.618 408.814 188.331 407.242C189.044 405.67 190.05 404.469 191.349 403.639C192.657 402.799 194.151 402.379 195.831 402.379C197.54 402.379 199.044 402.794 200.343 403.624C201.651 404.444 202.657 405.641 203.36 407.213C204.063 408.775 204.415 410.597 204.415 412.677V414.024ZM201.617 412.647C201.617 410.118 201.109 408.18 200.094 406.832C199.078 405.475 197.657 404.796 195.831 404.796C194.054 404.796 192.652 405.475 191.627 406.832C190.611 408.18 190.089 410.055 190.06 412.457V414.024C190.06 416.476 190.572 418.404 191.598 419.811C192.633 421.207 194.054 421.905 195.86 421.905C197.677 421.905 199.083 421.246 200.079 419.928C201.075 418.6 201.588 416.7 201.617 414.229V412.647ZM215.372 420.265L221.466 402.672H224.542L216.632 424H214.142L206.246 402.672H209.308L215.372 420.265ZM230.431 424H227.618V402.672H230.431V424ZM235.587 424V402.672H241.607C243.463 402.672 245.104 403.082 246.529 403.902C247.955 404.723 249.054 405.89 249.825 407.403C250.606 408.917 251.002 410.655 251.012 412.618V413.98C251.012 415.992 250.621 417.755 249.84 419.269C249.068 420.782 247.96 421.944 246.515 422.755C245.079 423.565 243.404 423.98 241.49 424H235.587ZM238.399 404.986V421.7H241.358C243.526 421.7 245.211 421.026 246.412 419.679C247.623 418.331 248.229 416.412 248.229 413.922V412.677C248.229 410.255 247.657 408.375 246.515 407.037C245.382 405.689 243.771 405.006 241.681 404.986H238.399ZM260.489 416.046H253.341V413.834H260.489V416.046ZM271.769 424H269.044V405.938L263.58 407.945V405.484L271.344 402.569H271.769V424ZM290.094 414.625C289.527 415.299 288.849 415.841 288.058 416.251C287.276 416.661 286.417 416.866 285.479 416.866C284.249 416.866 283.175 416.563 282.257 415.958C281.349 415.353 280.646 414.503 280.147 413.409C279.649 412.306 279.4 411.09 279.4 409.762C279.4 408.336 279.669 407.052 280.206 405.909C280.753 404.767 281.524 403.893 282.521 403.287C283.517 402.682 284.679 402.379 286.007 402.379C288.116 402.379 289.776 403.17 290.987 404.752C292.208 406.324 292.818 408.473 292.818 411.197V411.988C292.818 416.139 291.998 419.171 290.357 421.085C288.717 422.989 286.241 423.966 282.931 424.015H282.403V421.729H282.975C285.211 421.69 286.93 421.109 288.131 419.986C289.332 418.854 289.986 417.066 290.094 414.625ZM285.919 414.625C286.827 414.625 287.662 414.347 288.424 413.79C289.195 413.233 289.757 412.545 290.108 411.725V410.641C290.108 408.863 289.723 407.418 288.951 406.305C288.18 405.191 287.203 404.635 286.021 404.635C284.83 404.635 283.873 405.094 283.15 406.012C282.428 406.92 282.066 408.121 282.066 409.615C282.066 411.07 282.413 412.271 283.106 413.219C283.81 414.156 284.747 414.625 285.919 414.625ZM112.027 450.65V459H109.215V437.672H117.081C119.415 437.672 121.241 438.268 122.56 439.459C123.888 440.65 124.552 442.228 124.552 444.19C124.552 446.261 123.902 447.857 122.604 448.98C121.314 450.094 119.464 450.65 117.052 450.65H112.027ZM112.027 448.351H117.081C118.585 448.351 119.737 447.999 120.538 447.296C121.339 446.583 121.739 445.558 121.739 444.22C121.739 442.95 121.339 441.935 120.538 441.173C119.737 440.411 118.639 440.016 117.242 439.986H112.027V448.351ZM137.325 459C137.169 458.688 137.042 458.131 136.944 457.33C135.685 458.639 134.181 459.293 132.433 459.293C130.87 459.293 129.586 458.854 128.58 457.975C127.584 457.086 127.086 455.963 127.086 454.605C127.086 452.955 127.711 451.676 128.961 450.768C130.221 449.85 131.988 449.391 134.264 449.391H136.9V448.146C136.9 447.198 136.617 446.446 136.051 445.89C135.484 445.323 134.649 445.04 133.546 445.04C132.579 445.04 131.769 445.284 131.114 445.772C130.46 446.261 130.133 446.852 130.133 447.545H127.408C127.408 446.754 127.687 445.992 128.243 445.26C128.81 444.518 129.571 443.932 130.528 443.502C131.495 443.072 132.555 442.857 133.707 442.857C135.533 442.857 136.964 443.316 137.999 444.234C139.034 445.143 139.571 446.397 139.61 447.999V455.294C139.61 456.749 139.796 457.906 140.167 458.766V459H137.325ZM132.828 456.935C133.678 456.935 134.483 456.715 135.245 456.275C136.007 455.836 136.559 455.265 136.9 454.562V451.31H134.776C131.456 451.31 129.796 452.281 129.796 454.225C129.796 455.074 130.079 455.738 130.646 456.217C131.212 456.695 131.939 456.935 132.828 456.935ZM146.422 443.15L146.51 445.143C147.721 443.619 149.303 442.857 151.256 442.857C154.605 442.857 156.295 444.747 156.324 448.526V459H153.614V448.512C153.604 447.369 153.341 446.524 152.823 445.978C152.315 445.431 151.52 445.157 150.436 445.157C149.557 445.157 148.785 445.392 148.121 445.86C147.457 446.329 146.939 446.944 146.568 447.706V459H143.858V443.15H146.422ZM159.752 450.943C159.752 448.512 160.328 446.559 161.48 445.084C162.633 443.6 164.142 442.857 166.007 442.857C167.862 442.857 169.332 443.492 170.416 444.762V436.5H173.126V459H170.636L170.504 457.301C169.42 458.629 167.911 459.293 165.978 459.293C164.142 459.293 162.643 458.541 161.48 457.037C160.328 455.533 159.752 453.57 159.752 451.148V450.943ZM162.462 451.251C162.462 453.048 162.833 454.454 163.575 455.47C164.317 456.485 165.343 456.993 166.651 456.993C168.37 456.993 169.625 456.222 170.416 454.679V447.398C169.605 445.904 168.36 445.157 166.681 445.157C165.353 445.157 164.317 445.67 163.575 446.695C162.833 447.721 162.462 449.239 162.462 451.251ZM183.922 459.293C181.773 459.293 180.025 458.59 178.678 457.184C177.33 455.768 176.656 453.878 176.656 451.515V451.017C176.656 449.444 176.954 448.043 177.55 446.812C178.155 445.572 178.995 444.605 180.069 443.912C181.153 443.209 182.325 442.857 183.585 442.857C185.646 442.857 187.247 443.536 188.39 444.894C189.532 446.251 190.104 448.194 190.104 450.724V451.852H179.366C179.405 453.414 179.859 454.679 180.729 455.646C181.607 456.603 182.721 457.081 184.068 457.081C185.025 457.081 185.836 456.886 186.5 456.495C187.164 456.104 187.745 455.587 188.243 454.942L189.898 456.231C188.57 458.272 186.578 459.293 183.922 459.293ZM183.585 445.084C182.491 445.084 181.573 445.484 180.831 446.285C180.089 447.076 179.63 448.189 179.454 449.625H187.394V449.42C187.315 448.043 186.944 446.979 186.28 446.227C185.616 445.465 184.718 445.084 183.585 445.084ZM195.802 443.15L195.875 444.908C197.037 443.541 198.604 442.857 200.577 442.857C202.794 442.857 204.303 443.707 205.104 445.406C205.631 444.645 206.314 444.029 207.154 443.561C208.004 443.092 209.005 442.857 210.157 442.857C213.634 442.857 215.401 444.698 215.46 448.38V459H212.75V448.541C212.75 447.408 212.491 446.563 211.974 446.007C211.456 445.44 210.587 445.157 209.366 445.157C208.36 445.157 207.525 445.46 206.861 446.065C206.197 446.661 205.812 447.467 205.704 448.482V459H202.979V448.614C202.979 446.31 201.852 445.157 199.596 445.157C197.818 445.157 196.603 445.914 195.948 447.428V459H193.238V443.15H195.802ZM222.506 459H219.796V443.15H222.506V459ZM219.576 438.946C219.576 438.507 219.708 438.136 219.972 437.833C220.245 437.53 220.646 437.379 221.173 437.379C221.7 437.379 222.101 437.53 222.374 437.833C222.647 438.136 222.784 438.507 222.784 438.946C222.784 439.386 222.647 439.752 222.374 440.045C222.101 440.338 221.7 440.484 221.173 440.484C220.646 440.484 220.245 440.338 219.972 440.045C219.708 439.752 219.576 439.386 219.576 438.946ZM233.214 457.081C234.181 457.081 235.025 456.788 235.748 456.202C236.471 455.616 236.871 454.884 236.949 454.005H239.513C239.464 454.913 239.151 455.777 238.575 456.598C237.999 457.418 237.228 458.072 236.261 458.561C235.304 459.049 234.288 459.293 233.214 459.293C231.056 459.293 229.337 458.575 228.058 457.14C226.788 455.694 226.153 453.722 226.153 451.222V450.768C226.153 449.225 226.437 447.853 227.003 446.651C227.569 445.45 228.38 444.518 229.435 443.854C230.499 443.189 231.754 442.857 233.199 442.857C234.977 442.857 236.451 443.39 237.623 444.454C238.805 445.519 239.435 446.9 239.513 448.6H236.949C236.871 447.574 236.48 446.734 235.777 446.08C235.084 445.416 234.225 445.084 233.199 445.084C231.822 445.084 230.753 445.582 229.991 446.578C229.239 447.564 228.863 448.995 228.863 450.87V451.383C228.863 453.209 229.239 454.615 229.991 455.602C230.743 456.588 231.817 457.081 233.214 457.081ZM252.711 445.069C253.912 443.595 255.475 442.857 257.398 442.857C260.748 442.857 262.438 444.747 262.467 448.526V459H259.757V448.512C259.747 447.369 259.483 446.524 258.966 445.978C258.458 445.431 257.662 445.157 256.578 445.157C255.699 445.157 254.928 445.392 254.264 445.86C253.6 446.329 253.082 446.944 252.711 447.706V459H250.001V436.5H252.711V445.069ZM276.31 459C276.153 458.688 276.026 458.131 275.929 457.33C274.669 458.639 273.165 459.293 271.417 459.293C269.854 459.293 268.57 458.854 267.564 457.975C266.568 457.086 266.07 455.963 266.07 454.605C266.07 452.955 266.695 451.676 267.945 450.768C269.205 449.85 270.973 449.391 273.248 449.391H275.885V448.146C275.885 447.198 275.602 446.446 275.035 445.89C274.469 445.323 273.634 445.04 272.53 445.04C271.563 445.04 270.753 445.284 270.099 445.772C269.444 446.261 269.117 446.852 269.117 447.545H266.393C266.393 446.754 266.671 445.992 267.228 445.26C267.794 444.518 268.556 443.932 269.513 443.502C270.479 443.072 271.539 442.857 272.691 442.857C274.518 442.857 275.948 443.316 276.983 444.234C278.019 445.143 278.556 446.397 278.595 447.999V455.294C278.595 456.749 278.78 457.906 279.151 458.766V459H276.31ZM271.812 456.935C272.662 456.935 273.468 456.715 274.229 456.275C274.991 455.836 275.543 455.265 275.885 454.562V451.31H273.761C270.44 451.31 268.78 452.281 268.78 454.225C268.78 455.074 269.063 455.738 269.63 456.217C270.196 456.695 270.924 456.935 271.812 456.935ZM292.071 454.796C292.071 454.063 291.793 453.497 291.236 453.097C290.689 452.687 289.728 452.335 288.351 452.042C286.983 451.749 285.895 451.397 285.084 450.987C284.283 450.577 283.688 450.089 283.297 449.522C282.916 448.956 282.726 448.282 282.726 447.501C282.726 446.202 283.272 445.104 284.366 444.205C285.47 443.307 286.876 442.857 288.585 442.857C290.382 442.857 291.837 443.321 292.95 444.249C294.073 445.177 294.635 446.363 294.635 447.809H291.91C291.91 447.066 291.593 446.427 290.958 445.89C290.333 445.353 289.542 445.084 288.585 445.084C287.599 445.084 286.827 445.299 286.271 445.729C285.714 446.158 285.436 446.72 285.436 447.413C285.436 448.067 285.694 448.561 286.212 448.893C286.729 449.225 287.662 449.542 289.01 449.845C290.367 450.147 291.466 450.509 292.306 450.929C293.146 451.349 293.766 451.856 294.166 452.452C294.576 453.038 294.781 453.756 294.781 454.605C294.781 456.021 294.215 457.159 293.082 458.019C291.949 458.868 290.479 459.293 288.673 459.293C287.403 459.293 286.28 459.068 285.304 458.619C284.327 458.17 283.561 457.545 283.004 456.744C282.457 455.934 282.184 455.06 282.184 454.122H284.894C284.942 455.03 285.304 455.753 285.978 456.29C286.661 456.817 287.56 457.081 288.673 457.081C289.698 457.081 290.519 456.876 291.134 456.466C291.759 456.046 292.071 455.489 292.071 454.796ZM75.5088 485.943C75.5088 483.512 76.085 481.559 77.2373 480.084C78.3896 478.6 79.8984 477.857 81.7637 477.857C83.6191 477.857 85.0889 478.492 86.1729 479.762V471.5H88.8828V494H86.3926L86.2607 492.301C85.1768 493.629 83.668 494.293 81.7344 494.293C79.8984 494.293 78.3994 493.541 77.2373 492.037C76.085 490.533 75.5088 488.57 75.5088 486.148V485.943ZM78.2188 486.251C78.2188 488.048 78.5898 489.454 79.332 490.47C80.0742 491.485 81.0996 491.993 82.4082 491.993C84.127 491.993 85.3818 491.222 86.1729 489.679V482.398C85.3623 480.904 84.1172 480.157 82.4375 480.157C81.1094 480.157 80.0742 480.67 79.332 481.695C78.5898 482.721 78.2188 484.239 78.2188 486.251ZM100.763 480.582C100.353 480.514 99.9082 480.479 99.4297 480.479C97.6523 480.479 96.4463 481.236 95.8115 482.75V494H93.1016V478.15H95.7383L95.7822 479.981C96.6709 478.565 97.9307 477.857 99.5615 477.857C100.089 477.857 100.489 477.926 100.763 478.062V480.582ZM112.467 494C112.311 493.688 112.184 493.131 112.086 492.33C110.826 493.639 109.322 494.293 107.574 494.293C106.012 494.293 104.728 493.854 103.722 492.975C102.726 492.086 102.228 490.963 102.228 489.605C102.228 487.955 102.853 486.676 104.103 485.768C105.362 484.85 107.13 484.391 109.405 484.391H112.042V483.146C112.042 482.198 111.759 481.446 111.192 480.89C110.626 480.323 109.791 480.04 108.688 480.04C107.721 480.04 106.91 480.284 106.256 480.772C105.602 481.261 105.274 481.852 105.274 482.545H102.55C102.55 481.754 102.828 480.992 103.385 480.26C103.951 479.518 104.713 478.932 105.67 478.502C106.637 478.072 107.696 477.857 108.849 477.857C110.675 477.857 112.105 478.316 113.141 479.234C114.176 480.143 114.713 481.397 114.752 482.999V490.294C114.752 491.749 114.938 492.906 115.309 493.766V494H112.467ZM107.97 491.935C108.819 491.935 109.625 491.715 110.387 491.275C111.148 490.836 111.7 490.265 112.042 489.562V486.31H109.918C106.598 486.31 104.938 487.281 104.938 489.225C104.938 490.074 105.221 490.738 105.787 491.217C106.354 491.695 107.081 491.935 107.97 491.935ZM128.229 489.796C128.229 489.063 127.95 488.497 127.394 488.097C126.847 487.687 125.885 487.335 124.508 487.042C123.141 486.749 122.052 486.397 121.241 485.987C120.44 485.577 119.845 485.089 119.454 484.522C119.073 483.956 118.883 483.282 118.883 482.501C118.883 481.202 119.43 480.104 120.523 479.205C121.627 478.307 123.033 477.857 124.742 477.857C126.539 477.857 127.994 478.321 129.107 479.249C130.23 480.177 130.792 481.363 130.792 482.809H128.067C128.067 482.066 127.75 481.427 127.115 480.89C126.49 480.353 125.699 480.084 124.742 480.084C123.756 480.084 122.984 480.299 122.428 480.729C121.871 481.158 121.593 481.72 121.593 482.413C121.593 483.067 121.852 483.561 122.369 483.893C122.887 484.225 123.819 484.542 125.167 484.845C126.524 485.147 127.623 485.509 128.463 485.929C129.303 486.349 129.923 486.856 130.323 487.452C130.733 488.038 130.938 488.756 130.938 489.605C130.938 491.021 130.372 492.159 129.239 493.019C128.106 493.868 126.637 494.293 124.83 494.293C123.561 494.293 122.438 494.068 121.461 493.619C120.484 493.17 119.718 492.545 119.161 491.744C118.614 490.934 118.341 490.06 118.341 489.122H121.051C121.1 490.03 121.461 490.753 122.135 491.29C122.818 491.817 123.717 492.081 124.83 492.081C125.855 492.081 126.676 491.876 127.291 491.466C127.916 491.046 128.229 490.489 128.229 489.796ZM138.146 474.312V478.15H141.104V480.245H138.146V490.074C138.146 490.709 138.277 491.188 138.541 491.51C138.805 491.822 139.254 491.979 139.889 491.979C140.201 491.979 140.631 491.92 141.178 491.803V494C140.465 494.195 139.771 494.293 139.098 494.293C137.887 494.293 136.974 493.927 136.358 493.194C135.743 492.462 135.436 491.422 135.436 490.074V480.245H132.55V478.15H135.436V474.312H138.146ZM147.228 494H144.518V478.15H147.228V494ZM144.298 473.946C144.298 473.507 144.43 473.136 144.693 472.833C144.967 472.53 145.367 472.379 145.895 472.379C146.422 472.379 146.822 472.53 147.096 472.833C147.369 473.136 147.506 473.507 147.506 473.946C147.506 474.386 147.369 474.752 147.096 475.045C146.822 475.338 146.422 475.484 145.895 475.484C145.367 475.484 144.967 475.338 144.693 475.045C144.43 474.752 144.298 474.386 144.298 473.946ZM157.936 492.081C158.902 492.081 159.747 491.788 160.47 491.202C161.192 490.616 161.593 489.884 161.671 489.005H164.234C164.186 489.913 163.873 490.777 163.297 491.598C162.721 492.418 161.949 493.072 160.982 493.561C160.025 494.049 159.01 494.293 157.936 494.293C155.777 494.293 154.059 493.575 152.779 492.14C151.51 490.694 150.875 488.722 150.875 486.222V485.768C150.875 484.225 151.158 482.853 151.725 481.651C152.291 480.45 153.102 479.518 154.156 478.854C155.221 478.189 156.476 477.857 157.921 477.857C159.698 477.857 161.173 478.39 162.345 479.454C163.526 480.519 164.156 481.9 164.234 483.6H161.671C161.593 482.574 161.202 481.734 160.499 481.08C159.806 480.416 158.946 480.084 157.921 480.084C156.544 480.084 155.475 480.582 154.713 481.578C153.961 482.564 153.585 483.995 153.585 485.87V486.383C153.585 488.209 153.961 489.615 154.713 490.602C155.465 491.588 156.539 492.081 157.936 492.081ZM177.066 494C176.91 493.688 176.783 493.131 176.686 492.33C175.426 493.639 173.922 494.293 172.174 494.293C170.611 494.293 169.327 493.854 168.321 492.975C167.325 492.086 166.827 490.963 166.827 489.605C166.827 487.955 167.452 486.676 168.702 485.768C169.962 484.85 171.729 484.391 174.005 484.391H176.642V483.146C176.642 482.198 176.358 481.446 175.792 480.89C175.226 480.323 174.391 480.04 173.287 480.04C172.32 480.04 171.51 480.284 170.855 480.772C170.201 481.261 169.874 481.852 169.874 482.545H167.149C167.149 481.754 167.428 480.992 167.984 480.26C168.551 479.518 169.312 478.932 170.27 478.502C171.236 478.072 172.296 477.857 173.448 477.857C175.274 477.857 176.705 478.316 177.74 479.234C178.775 480.143 179.312 481.397 179.352 482.999V490.294C179.352 491.749 179.537 492.906 179.908 493.766V494H177.066ZM172.569 491.935C173.419 491.935 174.225 491.715 174.986 491.275C175.748 490.836 176.3 490.265 176.642 489.562V486.31H174.518C171.197 486.31 169.537 487.281 169.537 489.225C169.537 490.074 169.82 490.738 170.387 491.217C170.953 491.695 171.681 491.935 172.569 491.935ZM186.544 494H183.834V471.5H186.544V494ZM193.839 494H191.129V471.5H193.839V494ZM203.375 490.03L207.066 478.15H209.967L203.595 496.446C202.608 499.083 201.041 500.401 198.893 500.401L198.38 500.357L197.369 500.167V497.97L198.102 498.028C199.02 498.028 199.732 497.843 200.24 497.472C200.758 497.101 201.183 496.422 201.515 495.436L202.115 493.824L196.461 478.15H199.42L203.375 490.03ZM229.625 494C229.469 493.688 229.342 493.131 229.244 492.33C227.984 493.639 226.48 494.293 224.732 494.293C223.17 494.293 221.886 493.854 220.88 492.975C219.884 492.086 219.386 490.963 219.386 489.605C219.386 487.955 220.011 486.676 221.261 485.768C222.521 484.85 224.288 484.391 226.563 484.391H229.2V483.146C229.2 482.198 228.917 481.446 228.351 480.89C227.784 480.323 226.949 480.04 225.846 480.04C224.879 480.04 224.068 480.284 223.414 480.772C222.76 481.261 222.433 481.852 222.433 482.545H219.708C219.708 481.754 219.986 480.992 220.543 480.26C221.109 479.518 221.871 478.932 222.828 478.502C223.795 478.072 224.854 477.857 226.007 477.857C227.833 477.857 229.264 478.316 230.299 479.234C231.334 480.143 231.871 481.397 231.91 482.999V490.294C231.91 491.749 232.096 492.906 232.467 493.766V494H229.625ZM225.128 491.935C225.978 491.935 226.783 491.715 227.545 491.275C228.307 490.836 228.858 490.265 229.2 489.562V486.31H227.076C223.756 486.31 222.096 487.281 222.096 489.225C222.096 490.074 222.379 490.738 222.945 491.217C223.512 491.695 224.239 491.935 225.128 491.935ZM237.491 494V480.245H234.986V478.15H237.491V476.524C237.491 474.825 237.945 473.512 238.854 472.584C239.762 471.656 241.046 471.192 242.706 471.192C243.331 471.192 243.951 471.275 244.566 471.441L244.42 473.639C243.961 473.551 243.473 473.507 242.955 473.507C242.076 473.507 241.397 473.766 240.919 474.283C240.44 474.791 240.201 475.523 240.201 476.48V478.15H243.585V480.245H240.201V494H237.491ZM247.921 494V480.245H245.416V478.15H247.921V476.524C247.921 474.825 248.375 473.512 249.283 472.584C250.191 471.656 251.476 471.192 253.136 471.192C253.761 471.192 254.381 471.275 254.996 471.441L254.85 473.639C254.391 473.551 253.902 473.507 253.385 473.507C252.506 473.507 251.827 473.766 251.349 474.283C250.87 474.791 250.631 475.523 250.631 476.48V478.15H254.015V480.245H250.631V494H247.921ZM263.243 494.293C261.095 494.293 259.347 493.59 257.999 492.184C256.651 490.768 255.978 488.878 255.978 486.515V486.017C255.978 484.444 256.275 483.043 256.871 481.812C257.477 480.572 258.316 479.605 259.391 478.912C260.475 478.209 261.646 477.857 262.906 477.857C264.967 477.857 266.568 478.536 267.711 479.894C268.854 481.251 269.425 483.194 269.425 485.724V486.852H258.688C258.727 488.414 259.181 489.679 260.05 490.646C260.929 491.603 262.042 492.081 263.39 492.081C264.347 492.081 265.157 491.886 265.821 491.495C266.485 491.104 267.066 490.587 267.564 489.942L269.22 491.231C267.892 493.272 265.899 494.293 263.243 494.293ZM262.906 480.084C261.812 480.084 260.895 480.484 260.152 481.285C259.41 482.076 258.951 483.189 258.775 484.625H266.715V484.42C266.637 483.043 266.266 481.979 265.602 481.227C264.938 480.465 264.039 480.084 262.906 480.084ZM278.932 492.081C279.898 492.081 280.743 491.788 281.466 491.202C282.188 490.616 282.589 489.884 282.667 489.005H285.23C285.182 489.913 284.869 490.777 284.293 491.598C283.717 492.418 282.945 493.072 281.979 493.561C281.021 494.049 280.006 494.293 278.932 494.293C276.773 494.293 275.055 493.575 273.775 492.14C272.506 490.694 271.871 488.722 271.871 486.222V485.768C271.871 484.225 272.154 482.853 272.721 481.651C273.287 480.45 274.098 479.518 275.152 478.854C276.217 478.189 277.472 477.857 278.917 477.857C280.694 477.857 282.169 478.39 283.341 479.454C284.522 480.519 285.152 481.9 285.23 483.6H282.667C282.589 482.574 282.198 481.734 281.495 481.08C280.802 480.416 279.942 480.084 278.917 480.084C277.54 480.084 276.471 480.582 275.709 481.578C274.957 482.564 274.581 483.995 274.581 485.87V486.383C274.581 488.209 274.957 489.615 275.709 490.602C276.461 491.588 277.535 492.081 278.932 492.081ZM291.954 474.312V478.15H294.913V480.245H291.954V490.074C291.954 490.709 292.086 491.188 292.35 491.51C292.613 491.822 293.062 491.979 293.697 491.979C294.01 491.979 294.439 491.92 294.986 491.803V494C294.273 494.195 293.58 494.293 292.906 494.293C291.695 494.293 290.782 493.927 290.167 493.194C289.552 492.462 289.244 491.422 289.244 490.074V480.245H286.358V478.15H289.244V474.312H291.954ZM304.669 494.293C302.521 494.293 300.772 493.59 299.425 492.184C298.077 490.768 297.403 488.878 297.403 486.515V486.017C297.403 484.444 297.701 483.043 298.297 481.812C298.902 480.572 299.742 479.605 300.816 478.912C301.9 478.209 303.072 477.857 304.332 477.857C306.393 477.857 307.994 478.536 309.137 479.894C310.279 481.251 310.851 483.194 310.851 485.724V486.852H300.113C300.152 488.414 300.606 489.679 301.476 490.646C302.354 491.603 303.468 492.081 304.815 492.081C305.772 492.081 306.583 491.886 307.247 491.495C307.911 491.104 308.492 490.587 308.99 489.942L310.646 491.231C309.317 493.272 307.325 494.293 304.669 494.293ZM304.332 480.084C303.238 480.084 302.32 480.484 301.578 481.285C300.836 482.076 300.377 483.189 300.201 484.625H308.141V484.42C308.062 483.043 307.691 481.979 307.027 481.227C306.363 480.465 305.465 480.084 304.332 480.084ZM313.341 485.943C313.341 483.512 313.917 481.559 315.069 480.084C316.222 478.6 317.73 477.857 319.596 477.857C321.451 477.857 322.921 478.492 324.005 479.762V471.5H326.715V494H324.225L324.093 492.301C323.009 493.629 321.5 494.293 319.566 494.293C317.73 494.293 316.231 493.541 315.069 492.037C313.917 490.533 313.341 488.57 313.341 486.148V485.943ZM316.051 486.251C316.051 488.048 316.422 489.454 317.164 490.47C317.906 491.485 318.932 491.993 320.24 491.993C321.959 491.993 323.214 491.222 324.005 489.679V482.398C323.194 480.904 321.949 480.157 320.27 480.157C318.941 480.157 317.906 480.67 317.164 481.695C316.422 482.721 316.051 484.239 316.051 486.251ZM53.7705 509.312V513.15H56.7295V515.245H53.7705V525.074C53.7705 525.709 53.9023 526.188 54.166 526.51C54.4297 526.822 54.8789 526.979 55.5137 526.979C55.8262 526.979 56.2559 526.92 56.8027 526.803V529C56.0898 529.195 55.3965 529.293 54.7227 529.293C53.5117 529.293 52.5986 528.927 51.9834 528.194C51.3682 527.462 51.0605 526.422 51.0605 525.074V515.245H48.1748V513.15H51.0605V509.312H53.7705ZM62.6182 515.069C63.8193 513.595 65.3818 512.857 67.3057 512.857C70.6553 512.857 72.3447 514.747 72.374 518.526V529H69.6641V518.512C69.6543 517.369 69.3906 516.524 68.873 515.978C68.3652 515.431 67.5693 515.157 66.4854 515.157C65.6064 515.157 64.835 515.392 64.1709 515.86C63.5068 516.329 62.9893 516.944 62.6182 517.706V529H59.9082V506.5H62.6182V515.069ZM83.0088 529.293C80.8604 529.293 79.1123 528.59 77.7646 527.184C76.417 525.768 75.7432 523.878 75.7432 521.515V521.017C75.7432 519.444 76.041 518.043 76.6367 516.812C77.2422 515.572 78.082 514.605 79.1562 513.912C80.2402 513.209 81.4121 512.857 82.6719 512.857C84.7324 512.857 86.334 513.536 87.4766 514.894C88.6191 516.251 89.1904 518.194 89.1904 520.724V521.852H78.4531C78.4922 523.414 78.9463 524.679 79.8154 525.646C80.6943 526.603 81.8076 527.081 83.1553 527.081C84.1123 527.081 84.9229 526.886 85.5869 526.495C86.251 526.104 86.832 525.587 87.3301 524.942L88.9854 526.231C87.6572 528.272 85.665 529.293 83.0088 529.293ZM82.6719 515.084C81.5781 515.084 80.6602 515.484 79.918 516.285C79.1758 517.076 78.7168 518.189 78.541 519.625H86.4805V519.42C86.4023 518.043 86.0312 516.979 85.3672 516.227C84.7031 515.465 83.8047 515.084 82.6719 515.084ZM107.442 515.582C107.032 515.514 106.588 515.479 106.109 515.479C104.332 515.479 103.126 516.236 102.491 517.75V529H99.7812V513.15H102.418L102.462 514.981C103.351 513.565 104.61 512.857 106.241 512.857C106.769 512.857 107.169 512.926 107.442 513.062V515.582ZM116.231 529.293C114.083 529.293 112.335 528.59 110.987 527.184C109.64 525.768 108.966 523.878 108.966 521.515V521.017C108.966 519.444 109.264 518.043 109.859 516.812C110.465 515.572 111.305 514.605 112.379 513.912C113.463 513.209 114.635 512.857 115.895 512.857C117.955 512.857 119.557 513.536 120.699 514.894C121.842 516.251 122.413 518.194 122.413 520.724V521.852H111.676C111.715 523.414 112.169 524.679 113.038 525.646C113.917 526.603 115.03 527.081 116.378 527.081C117.335 527.081 118.146 526.886 118.81 526.495C119.474 526.104 120.055 525.587 120.553 524.942L122.208 526.231C120.88 528.272 118.888 529.293 116.231 529.293ZM115.895 515.084C114.801 515.084 113.883 515.484 113.141 516.285C112.398 517.076 111.939 518.189 111.764 519.625H119.703V519.42C119.625 518.043 119.254 516.979 118.59 516.227C117.926 515.465 117.027 515.084 115.895 515.084ZM134.791 524.796C134.791 524.063 134.513 523.497 133.956 523.097C133.409 522.687 132.447 522.335 131.07 522.042C129.703 521.749 128.614 521.397 127.804 520.987C127.003 520.577 126.407 520.089 126.017 519.522C125.636 518.956 125.445 518.282 125.445 517.501C125.445 516.202 125.992 515.104 127.086 514.205C128.189 513.307 129.596 512.857 131.305 512.857C133.102 512.857 134.557 513.321 135.67 514.249C136.793 515.177 137.354 516.363 137.354 517.809H134.63C134.63 517.066 134.312 516.427 133.678 515.89C133.053 515.353 132.262 515.084 131.305 515.084C130.318 515.084 129.547 515.299 128.99 515.729C128.434 516.158 128.155 516.72 128.155 517.413C128.155 518.067 128.414 518.561 128.932 518.893C129.449 519.225 130.382 519.542 131.729 519.845C133.087 520.147 134.186 520.509 135.025 520.929C135.865 521.349 136.485 521.856 136.886 522.452C137.296 523.038 137.501 523.756 137.501 524.605C137.501 526.021 136.935 527.159 135.802 528.019C134.669 528.868 133.199 529.293 131.393 529.293C130.123 529.293 129 529.068 128.023 528.619C127.047 528.17 126.28 527.545 125.724 526.744C125.177 525.934 124.903 525.06 124.903 524.122H127.613C127.662 525.03 128.023 525.753 128.697 526.29C129.381 526.817 130.279 527.081 131.393 527.081C132.418 527.081 133.238 526.876 133.854 526.466C134.479 526.046 134.791 525.489 134.791 524.796ZM144.708 509.312V513.15H147.667V515.245H144.708V525.074C144.708 525.709 144.84 526.188 145.104 526.51C145.367 526.822 145.816 526.979 146.451 526.979C146.764 526.979 147.193 526.92 147.74 526.803V529C147.027 529.195 146.334 529.293 145.66 529.293C144.449 529.293 143.536 528.927 142.921 528.194C142.306 527.462 141.998 526.422 141.998 525.074V515.245H139.112V513.15H141.998V509.312H144.708ZM160.631 529C160.475 528.688 160.348 528.131 160.25 527.33C158.99 528.639 157.486 529.293 155.738 529.293C154.176 529.293 152.892 528.854 151.886 527.975C150.89 527.086 150.392 525.963 150.392 524.605C150.392 522.955 151.017 521.676 152.267 520.768C153.526 519.85 155.294 519.391 157.569 519.391H160.206V518.146C160.206 517.198 159.923 516.446 159.356 515.89C158.79 515.323 157.955 515.04 156.852 515.04C155.885 515.04 155.074 515.284 154.42 515.772C153.766 516.261 153.438 516.852 153.438 517.545H150.714C150.714 516.754 150.992 515.992 151.549 515.26C152.115 514.518 152.877 513.932 153.834 513.502C154.801 513.072 155.86 512.857 157.013 512.857C158.839 512.857 160.27 513.316 161.305 514.234C162.34 515.143 162.877 516.397 162.916 517.999V525.294C162.916 526.749 163.102 527.906 163.473 528.766V529H160.631ZM156.134 526.935C156.983 526.935 157.789 526.715 158.551 526.275C159.312 525.836 159.864 525.265 160.206 524.562V521.31H158.082C154.762 521.31 153.102 522.281 153.102 524.225C153.102 525.074 153.385 525.738 153.951 526.217C154.518 526.695 155.245 526.935 156.134 526.935ZM176.949 527.433C175.895 528.673 174.347 529.293 172.306 529.293C170.616 529.293 169.327 528.805 168.438 527.828C167.56 526.842 167.115 525.387 167.105 523.463V513.15H169.815V523.39C169.815 525.792 170.792 526.993 172.745 526.993C174.815 526.993 176.192 526.222 176.876 524.679V513.15H179.586V529H177.008L176.949 527.433ZM191.378 515.582C190.968 515.514 190.523 515.479 190.045 515.479C188.268 515.479 187.062 516.236 186.427 517.75V529H183.717V513.15H186.354L186.397 514.981C187.286 513.565 188.546 512.857 190.177 512.857C190.704 512.857 191.104 512.926 191.378 513.062V515.582ZM203.082 529C202.926 528.688 202.799 528.131 202.701 527.33C201.441 528.639 199.938 529.293 198.189 529.293C196.627 529.293 195.343 528.854 194.337 527.975C193.341 527.086 192.843 525.963 192.843 524.605C192.843 522.955 193.468 521.676 194.718 520.768C195.978 519.85 197.745 519.391 200.021 519.391H202.657V518.146C202.657 517.198 202.374 516.446 201.808 515.89C201.241 515.323 200.406 515.04 199.303 515.04C198.336 515.04 197.525 515.284 196.871 515.772C196.217 516.261 195.89 516.852 195.89 517.545H193.165C193.165 516.754 193.443 515.992 194 515.26C194.566 514.518 195.328 513.932 196.285 513.502C197.252 513.072 198.312 512.857 199.464 512.857C201.29 512.857 202.721 513.316 203.756 514.234C204.791 515.143 205.328 516.397 205.367 517.999V525.294C205.367 526.749 205.553 527.906 205.924 528.766V529H203.082ZM198.585 526.935C199.435 526.935 200.24 526.715 201.002 526.275C201.764 525.836 202.315 525.265 202.657 524.562V521.31H200.533C197.213 521.31 195.553 522.281 195.553 524.225C195.553 525.074 195.836 525.738 196.402 526.217C196.969 526.695 197.696 526.935 198.585 526.935ZM212.179 513.15L212.267 515.143C213.478 513.619 215.06 512.857 217.013 512.857C220.362 512.857 222.052 514.747 222.081 518.526V529H219.371V518.512C219.361 517.369 219.098 516.524 218.58 515.978C218.072 515.431 217.276 515.157 216.192 515.157C215.313 515.157 214.542 515.392 213.878 515.86C213.214 516.329 212.696 516.944 212.325 517.706V529H209.615V513.15H212.179ZM229.845 509.312V513.15H232.804V515.245H229.845V525.074C229.845 525.709 229.977 526.188 230.24 526.51C230.504 526.822 230.953 526.979 231.588 526.979C231.9 526.979 232.33 526.92 232.877 526.803V529C232.164 529.195 231.471 529.293 230.797 529.293C229.586 529.293 228.673 528.927 228.058 528.194C227.442 527.462 227.135 526.422 227.135 525.074V515.245H224.249V513.15H227.135V509.312H229.845ZM246.368 529H243.658V513.15H246.368V529ZM243.438 508.946C243.438 508.507 243.57 508.136 243.834 507.833C244.107 507.53 244.508 507.379 245.035 507.379C245.562 507.379 245.963 507.53 246.236 507.833C246.51 508.136 246.646 508.507 246.646 508.946C246.646 509.386 246.51 509.752 246.236 510.045C245.963 510.338 245.562 510.484 245.035 510.484C244.508 510.484 244.107 510.338 243.834 510.045C243.57 509.752 243.438 509.386 243.438 508.946ZM253.282 513.15L253.37 515.143C254.581 513.619 256.163 512.857 258.116 512.857C261.466 512.857 263.155 514.747 263.185 518.526V529H260.475V518.512C260.465 517.369 260.201 516.524 259.684 515.978C259.176 515.431 258.38 515.157 257.296 515.157C256.417 515.157 255.646 515.392 254.981 515.86C254.317 516.329 253.8 516.944 253.429 517.706V529H250.719V513.15H253.282ZM266.612 520.943C266.612 518.512 267.188 516.559 268.341 515.084C269.493 513.6 271.002 512.857 272.867 512.857C274.723 512.857 276.192 513.492 277.276 514.762V506.5H279.986V529H277.496L277.364 527.301C276.28 528.629 274.771 529.293 272.838 529.293C271.002 529.293 269.503 528.541 268.341 527.037C267.188 525.533 266.612 523.57 266.612 521.148V520.943ZM269.322 521.251C269.322 523.048 269.693 524.454 270.436 525.47C271.178 526.485 272.203 526.993 273.512 526.993C275.23 526.993 276.485 526.222 277.276 524.679V517.398C276.466 515.904 275.221 515.157 273.541 515.157C272.213 515.157 271.178 515.67 270.436 516.695C269.693 517.721 269.322 519.239 269.322 521.251ZM293.99 527.433C292.936 528.673 291.388 529.293 289.347 529.293C287.657 529.293 286.368 528.805 285.479 527.828C284.601 526.842 284.156 525.387 284.146 523.463V513.15H286.856V523.39C286.856 525.792 287.833 526.993 289.786 526.993C291.856 526.993 293.233 526.222 293.917 524.679V513.15H296.627V529H294.049L293.99 527.433ZM309.986 524.796C309.986 524.063 309.708 523.497 309.151 523.097C308.604 522.687 307.643 522.335 306.266 522.042C304.898 521.749 303.81 521.397 302.999 520.987C302.198 520.577 301.603 520.089 301.212 519.522C300.831 518.956 300.641 518.282 300.641 517.501C300.641 516.202 301.188 515.104 302.281 514.205C303.385 513.307 304.791 512.857 306.5 512.857C308.297 512.857 309.752 513.321 310.865 514.249C311.988 515.177 312.55 516.363 312.55 517.809H309.825C309.825 517.066 309.508 516.427 308.873 515.89C308.248 515.353 307.457 515.084 306.5 515.084C305.514 515.084 304.742 515.299 304.186 515.729C303.629 516.158 303.351 516.72 303.351 517.413C303.351 518.067 303.609 518.561 304.127 518.893C304.645 519.225 305.577 519.542 306.925 519.845C308.282 520.147 309.381 520.509 310.221 520.929C311.061 521.349 311.681 521.856 312.081 522.452C312.491 523.038 312.696 523.756 312.696 524.605C312.696 526.021 312.13 527.159 310.997 528.019C309.864 528.868 308.395 529.293 306.588 529.293C305.318 529.293 304.195 529.068 303.219 528.619C302.242 528.17 301.476 527.545 300.919 526.744C300.372 525.934 300.099 525.06 300.099 524.122H302.809C302.857 525.03 303.219 525.753 303.893 526.29C304.576 526.817 305.475 527.081 306.588 527.081C307.613 527.081 308.434 526.876 309.049 526.466C309.674 526.046 309.986 525.489 309.986 524.796ZM319.903 509.312V513.15H322.862V515.245H319.903V525.074C319.903 525.709 320.035 526.188 320.299 526.51C320.562 526.822 321.012 526.979 321.646 526.979C321.959 526.979 322.389 526.92 322.936 526.803V529C322.223 529.195 321.529 529.293 320.855 529.293C319.645 529.293 318.731 528.927 318.116 528.194C317.501 527.462 317.193 526.422 317.193 525.074V515.245H314.308V513.15H317.193V509.312H319.903ZM333.702 515.582C333.292 515.514 332.848 515.479 332.369 515.479C330.592 515.479 329.386 516.236 328.751 517.75V529H326.041V513.15H328.678L328.722 514.981C329.61 513.565 330.87 512.857 332.501 512.857C333.028 512.857 333.429 512.926 333.702 513.062V515.582ZM341.656 525.03L345.348 513.15H348.248L341.876 531.446C340.89 534.083 339.322 535.401 337.174 535.401L336.661 535.357L335.65 535.167V532.97L336.383 533.028C337.301 533.028 338.014 532.843 338.521 532.472C339.039 532.101 339.464 531.422 339.796 530.436L340.396 528.824L334.742 513.15H337.701L341.656 525.03ZM349.156 527.579C349.156 527.11 349.293 526.72 349.566 526.407C349.85 526.095 350.27 525.938 350.826 525.938C351.383 525.938 351.803 526.095 352.086 526.407C352.379 526.72 352.525 527.11 352.525 527.579C352.525 528.028 352.379 528.404 352.086 528.707C351.803 529.01 351.383 529.161 350.826 529.161C350.27 529.161 349.85 529.01 349.566 528.707C349.293 528.404 349.156 528.028 349.156 527.579Z" fill="black"/>
<path d="M98.6875 263.797L102.516 243.562H108.355L102.047 272H96.1484L91.5195 252.977L86.8906 272H80.9922L74.6836 243.562H80.5234L84.3711 263.758L89.0586 243.562H94.0195L98.6875 263.797ZM116.676 253.172C118.173 251.375 120.055 250.477 122.32 250.477C126.904 250.477 129.228 253.139 129.293 258.465V272H123.648V258.621C123.648 257.41 123.388 256.518 122.867 255.945C122.346 255.359 121.48 255.066 120.27 255.066C118.616 255.066 117.418 255.704 116.676 256.98V272H111.031V242H116.676V253.172ZM141.441 264.012L145.348 250.867H151.402L142.906 275.281L142.438 276.395C141.174 279.155 139.091 280.535 136.188 280.535C135.367 280.535 134.534 280.411 133.688 280.164V275.887L134.547 275.906C135.615 275.906 136.409 275.743 136.93 275.418C137.464 275.092 137.88 274.552 138.18 273.797L138.844 272.059L131.441 250.867H137.516L141.441 264.012ZM170.191 272H164.332V243.562H170.191V272ZM182.027 245.672V250.867H185.641V255.008H182.027V265.555C182.027 266.336 182.177 266.896 182.477 267.234C182.776 267.573 183.349 267.742 184.195 267.742C184.82 267.742 185.374 267.697 185.855 267.605V271.883C184.749 272.221 183.609 272.391 182.438 272.391C178.479 272.391 176.461 270.392 176.383 266.395V255.008H173.297V250.867H176.383V245.672H182.027ZM213.863 264.539C213.863 263.432 213.473 262.586 212.691 262C211.91 261.401 210.504 260.776 208.473 260.125C206.441 259.461 204.833 258.81 203.648 258.172C200.419 256.427 198.805 254.077 198.805 251.121C198.805 249.585 199.234 248.217 200.094 247.02C200.966 245.809 202.21 244.865 203.824 244.188C205.452 243.51 207.275 243.172 209.293 243.172C211.324 243.172 213.134 243.543 214.723 244.285C216.311 245.014 217.542 246.049 218.414 247.391C219.299 248.732 219.742 250.255 219.742 251.961H213.883C213.883 250.659 213.473 249.65 212.652 248.934C211.832 248.204 210.68 247.84 209.195 247.84C207.763 247.84 206.65 248.146 205.855 248.758C205.061 249.357 204.664 250.151 204.664 251.141C204.664 252.065 205.126 252.84 206.051 253.465C206.988 254.09 208.362 254.676 210.172 255.223C213.505 256.225 215.934 257.469 217.457 258.953C218.98 260.438 219.742 262.286 219.742 264.5C219.742 266.961 218.811 268.895 216.949 270.301C215.087 271.694 212.581 272.391 209.43 272.391C207.242 272.391 205.25 271.993 203.453 271.199C201.656 270.392 200.283 269.292 199.332 267.898C198.395 266.505 197.926 264.891 197.926 263.055H203.805C203.805 266.193 205.68 267.762 209.43 267.762C210.823 267.762 211.91 267.482 212.691 266.922C213.473 266.349 213.863 265.555 213.863 264.539ZM230.113 245.672V250.867H233.727V255.008H230.113V265.555C230.113 266.336 230.263 266.896 230.562 267.234C230.862 267.573 231.435 267.742 232.281 267.742C232.906 267.742 233.46 267.697 233.941 267.605V271.883C232.835 272.221 231.695 272.391 230.523 272.391C226.565 272.391 224.547 270.392 224.469 266.395V255.008H221.383V250.867H224.469V245.672H230.113ZM249.117 272C248.857 271.492 248.668 270.861 248.551 270.105C247.184 271.629 245.406 272.391 243.219 272.391C241.148 272.391 239.43 271.792 238.062 270.594C236.708 269.396 236.031 267.885 236.031 266.062C236.031 263.823 236.858 262.104 238.512 260.906C240.178 259.708 242.581 259.103 245.719 259.09H248.316V257.879C248.316 256.902 248.062 256.121 247.555 255.535C247.06 254.949 246.272 254.656 245.191 254.656C244.241 254.656 243.492 254.884 242.945 255.34C242.411 255.796 242.145 256.421 242.145 257.215H236.5C236.5 255.991 236.878 254.858 237.633 253.816C238.388 252.775 239.456 251.961 240.836 251.375C242.216 250.776 243.766 250.477 245.484 250.477C248.089 250.477 250.152 251.134 251.676 252.449C253.212 253.751 253.98 255.587 253.98 257.957V267.117C253.993 269.122 254.273 270.639 254.82 271.668V272H249.117ZM244.449 268.074C245.283 268.074 246.051 267.892 246.754 267.527C247.457 267.15 247.978 266.648 248.316 266.023V262.391H246.207C243.382 262.391 241.878 263.367 241.695 265.32L241.676 265.652C241.676 266.355 241.923 266.935 242.418 267.391C242.913 267.846 243.59 268.074 244.449 268.074ZM270.191 256.16C269.423 256.056 268.746 256.004 268.16 256.004C266.025 256.004 264.625 256.727 263.961 258.172V272H258.316V250.867H263.648L263.805 253.387C264.938 251.447 266.507 250.477 268.512 250.477C269.137 250.477 269.723 250.561 270.27 250.73L270.191 256.16ZM280.66 245.672V250.867H284.273V255.008H280.66V265.555C280.66 266.336 280.81 266.896 281.109 267.234C281.409 267.573 281.982 267.742 282.828 267.742C283.453 267.742 284.007 267.697 284.488 267.605V271.883C283.382 272.221 282.242 272.391 281.07 272.391C277.112 272.391 275.094 270.392 275.016 266.395V255.008H271.93V250.867H275.016V245.672H280.66ZM297.145 272.391C294.046 272.391 291.52 271.44 289.566 269.539C287.626 267.638 286.656 265.105 286.656 261.941V261.395C286.656 259.272 287.066 257.378 287.887 255.711C288.707 254.031 289.866 252.742 291.363 251.844C292.874 250.932 294.592 250.477 296.52 250.477C299.41 250.477 301.682 251.388 303.336 253.211C305.003 255.034 305.836 257.618 305.836 260.965V263.27H292.379C292.561 264.65 293.108 265.757 294.02 266.59C294.944 267.423 296.109 267.84 297.516 267.84C299.69 267.84 301.389 267.052 302.613 265.477L305.387 268.582C304.54 269.78 303.395 270.717 301.949 271.395C300.504 272.059 298.902 272.391 297.145 272.391ZM296.5 255.047C295.38 255.047 294.469 255.424 293.766 256.18C293.076 256.935 292.633 258.016 292.438 259.422H300.289V258.973C300.263 257.723 299.924 256.759 299.273 256.082C298.622 255.392 297.698 255.047 296.5 255.047ZM308.18 261.277C308.18 257.983 308.915 255.359 310.387 253.406C311.871 251.453 313.896 250.477 316.461 250.477C318.518 250.477 320.217 251.245 321.559 252.781V242H327.223V272H322.125L321.852 269.754C320.445 271.512 318.635 272.391 316.422 272.391C313.935 272.391 311.936 271.414 310.426 269.461C308.928 267.495 308.18 264.767 308.18 261.277ZM313.824 261.688C313.824 263.667 314.169 265.184 314.859 266.238C315.549 267.293 316.552 267.82 317.867 267.82C319.612 267.82 320.842 267.085 321.559 265.613V257.273C320.855 255.802 319.638 255.066 317.906 255.066C315.185 255.066 313.824 257.273 313.824 261.688Z" fill="black"/>
<ellipse cx="201.5" cy="115" rx="77.5" ry="76" fill="#FFC850"/>
<path fill-rule="evenodd" clip-rule="evenodd" d="M213.07 70.6267V63.8H190.93V70.6267H198.587V76.987C198.449 76.9995 198.311 77.0127 198.174 77.0267C190.661 77.7928 183.807 80.7907 178.271 85.3495C178.071 85.514 177.873 85.6806 177.676 85.8492L173.198 81.371L178.697 75.8719L173.87 71.0447L158.045 86.8702L162.872 91.6974L168.371 86.1982L172.849 90.6764C172.681 90.8728 172.514 91.0709 172.349 91.2708C167.791 96.8076 164.793 103.661 164.027 111.174C164.013 111.312 163.999 111.449 163.987 111.587H157.627L157.627 103.93H150.8V126.07H157.627L157.627 118.413H163.987C163.999 118.551 164.013 118.689 164.027 118.826C164.793 126.339 167.791 133.193 172.35 138.73C172.514 138.93 172.681 139.127 172.849 139.324L168.371 143.802L162.872 138.303L158.045 143.13L173.87 158.955L178.697 154.128L173.198 148.629L177.676 144.151C177.872 144.319 178.07 144.486 178.27 144.65C183.807 149.209 190.661 152.207 198.174 152.973C198.311 152.987 198.449 153.001 198.587 153.013V159.373H190.93V166.2H213.07V159.373H205.413V153.013C205.551 153.001 205.688 152.987 205.826 152.973C213.339 152.207 220.192 149.209 225.729 144.651C225.929 144.486 226.127 144.319 226.324 144.151L230.802 148.629L225.303 154.128L230.13 158.955L245.955 143.13L241.128 138.303L235.629 143.802L231.151 139.324C231.319 139.127 231.486 138.929 231.651 138.729C236.209 133.193 239.207 126.339 239.973 118.826C239.987 118.689 240.001 118.551 240.013 118.413H246.373V126.07H253.2V103.93L246.373 103.93V111.587H240.013C240.001 111.449 239.987 111.312 239.973 111.174C239.207 103.661 236.209 96.8071 231.65 91.2701C231.486 91.0705 231.319 90.8726 231.151 90.6764L235.629 86.1982L241.128 91.6973L245.955 86.8701L230.13 71.0447L225.303 75.8719L230.802 81.371L226.324 85.8492C226.127 85.6808 225.93 85.5144 225.73 85.3499C220.193 80.7909 213.339 77.7928 205.826 77.0267C205.688 77.0127 205.551 76.9995 205.413 76.987V70.6267H213.07ZM200.982 84.3077C192.911 84.6439 185.647 88.0287 180.323 93.3225C177.997 95.6617 176.04 98.3755 174.547 101.368C172.501 105.471 171.329 110.097 171.281 115C171.286 115.489 171.302 115.976 171.329 116.46C171.436 118.378 171.715 120.249 172.151 122.058C173.509 127.693 176.389 132.721 180.324 136.678C181.49 137.838 182.751 138.907 184.092 139.872C189.127 143.493 195.306 145.654 202 145.719C202.388 145.715 202.775 145.704 203.16 145.686C205.479 145.579 207.731 145.221 209.888 144.637C215.186 143.205 219.916 140.417 223.677 136.677C229.193 131.13 232.636 123.477 232.718 115C232.664 109.393 231.139 104.146 228.517 99.6315C228.222 99.1234 227.913 98.6246 227.59 98.1356C226.446 96.4002 225.134 94.7881 223.677 93.323C218.436 88.111 211.314 84.7493 203.393 84.3255C202.931 84.3008 202.467 84.2861 202 84.2815C201.659 84.2849 201.32 84.2936 200.982 84.3077ZM179.665 105.542C176.559 107.479 174.903 111.234 175.766 114.956C175.773 114.986 175.779 115.015 175.787 115.044C175.803 115.113 175.821 115.182 175.84 115.251C176.249 116.779 177.037 118.104 178.077 119.152C179.613 120.701 181.698 121.645 183.916 121.744C184.791 121.783 185.687 121.691 186.579 121.452C189.447 120.683 191.601 118.578 192.548 115.986C192.767 115.386 192.922 114.76 193.006 114.119C193.151 113.012 193.086 111.858 192.779 110.713C192.493 109.644 192.021 108.675 191.408 107.831C190.561 106.664 189.444 105.735 188.173 105.11C186.334 104.207 184.174 103.941 182.04 104.512C181.179 104.743 180.383 105.094 179.665 105.542ZM194.564 101.803C194.39 103.458 194.511 105.173 194.968 106.877C195.247 107.919 195.637 108.902 196.122 109.817C196.755 111.012 197.551 112.09 198.471 113.03C198.784 113.349 199.111 113.653 199.452 113.94C202.419 116.44 206.382 117.672 210.413 117.1C210.97 117.021 211.527 116.907 212.084 116.758C218.803 114.958 223.06 108.555 222.372 101.85C222.297 101.116 222.162 100.378 221.965 99.6428C221.653 98.4774 221.202 97.386 220.635 96.3816C220.631 96.3743 220.627 96.3671 220.623 96.3598C217.559 90.9537 211.131 88.0782 204.85 89.7612C203.975 89.9955 203.142 90.3079 202.356 90.6887C197.976 92.8121 195.062 97.0647 194.564 101.803ZM207.904 123.632C205.565 120.714 201.854 119.088 198.018 119.475C197.508 119.527 196.995 119.614 196.483 119.739C196.397 119.759 196.311 119.781 196.225 119.804C192.257 120.868 189.358 123.926 188.317 127.612C187.785 129.493 187.738 131.538 188.281 133.564C188.457 134.223 188.689 134.853 188.97 135.449C191.228 140.253 196.651 142.91 201.959 141.53C201.986 141.523 202.013 141.515 202.04 141.508C203.931 141.001 205.58 140.042 206.9 138.776C209.764 136.032 211.084 131.851 209.985 127.749C209.569 126.197 208.848 124.81 207.904 123.632ZM210.427 110.576C214.468 109.494 216.866 105.34 215.783 101.299C214.701 97.2584 210.547 94.8604 206.506 95.9431C202.465 97.0259 200.067 101.179 201.15 105.22C202.233 109.261 206.386 111.659 210.427 110.576ZM200.384 135.326C202.963 134.635 204.494 131.984 203.803 129.405C203.112 126.826 200.461 125.295 197.881 125.986C195.302 126.677 193.772 129.328 194.463 131.908C195.154 134.487 197.805 136.017 200.384 135.326ZM182.021 113.595C182.36 114.859 183.659 115.608 184.922 115.27C186.186 114.931 186.936 113.633 186.597 112.369C186.259 111.106 184.96 110.356 183.696 110.694C182.433 111.033 181.683 112.332 182.021 113.595Z" fill="white"/>
<defs>
<filter id="filter0_d" x="0" y="0" width="403" height="667" filterUnits="userSpaceOnUse" color-interpolation-filters="sRGB">
<feFlood flood-opacity="0" result="BackgroundImageFix"/>
<feColorMatrix in="SourceAlpha" type="matrix" values="0 0 0 0 0 0 0 0 0 0 0 0 0 0 0 0 0 0 127 0"/>
<feOffset dy="4"/>
<feGaussianBlur stdDeviation="2"/>
<feColorMatrix type="matrix" values="0 0 0 0 0 0 0 0 0 0 0 0 0 0 0 0 0 0 0.25 0"/>
<feBlend mode="normal" in2="BackgroundImageFix" result="effect1_dropShadow"/>
<feBlend mode="normal" in="SourceGraphic" in2="effect1_dropShadow" result="shape"/>
</filter>
</defs>
</svg>
