<svg width="403" height="667" viewBox="0 0 403 667" fill="none" xmlns="http://www.w3.org/2000/svg">
<g filter="url(#filter0_d)">
<rect x="4" width="395" height="659" rx="35" fill="white"/>
<rect x="4.5" y="0.5" width="394" height="658" rx="34.5" stroke="black"/>
</g>
<path d="M126.896 417V395.672H133.869C136.184 395.672 137.922 396.15 139.084 397.107C140.256 398.064 140.842 399.48 140.842 401.355C140.842 402.352 140.559 403.235 139.992 404.007C139.426 404.769 138.654 405.359 137.678 405.779C138.83 406.102 139.738 406.717 140.402 407.625C141.076 408.523 141.413 409.598 141.413 410.848C141.413 412.762 140.793 414.266 139.553 415.359C138.312 416.453 136.56 417 134.294 417H126.896ZM129.709 407.024V414.7H134.353C135.661 414.7 136.691 414.363 137.443 413.689C138.205 413.006 138.586 412.068 138.586 410.877C138.586 408.309 137.189 407.024 134.396 407.024H129.709ZM129.709 404.769H133.957C135.188 404.769 136.169 404.461 136.901 403.846C137.644 403.23 138.015 402.396 138.015 401.341C138.015 400.169 137.673 399.319 136.989 398.792C136.306 398.255 135.266 397.986 133.869 397.986H129.709V404.769ZM150.349 413.03L154.04 401.15H156.94L150.568 419.446C149.582 422.083 148.015 423.401 145.866 423.401L145.354 423.357L144.343 423.167V420.97L145.075 421.028C145.993 421.028 146.706 420.843 147.214 420.472C147.731 420.101 148.156 419.422 148.488 418.436L149.089 416.824L143.435 401.15H146.394L150.349 413.03ZM178.239 419.212H164.821V417H178.239V419.212ZM191.774 419.212H178.356V417H191.774V419.212ZM205.31 419.212H191.892V417H205.31V419.212ZM218.845 419.212H205.427V417H218.845V419.212ZM232.38 419.212H218.962V417H232.38V419.212ZM245.915 419.212H232.497V417H245.915V419.212ZM259.45 419.212H246.032V417H259.45V419.212ZM272.985 419.212H259.567V417H272.985V419.212ZM286.521 419.212H273.103V417H286.521V419.212Z" fill="black"/>
<ellipse cx="197.5" cy="115" rx="77.5" ry="76" fill="#FFA037"/>
<path fill-rule="evenodd" clip-rule="evenodd" d="M229.062 152.071L239.409 142.833L235.765 131.012L237.352 127.627L249.333 121.591V108.527L237.386 102.465L235.825 99.0861L239.515 87.2598L229.161 78.0284L215.921 81.2811L212.138 79.8649L205.377 69.1666H190.745L183.957 79.8335L180.173 81.2269L166.929 77.9283L156.591 87.1587L160.235 98.9819L158.649 102.36L146.667 108.396V121.457L158.603 127.532L160.165 130.914L156.476 142.738L166.818 151.972L180.06 148.719L183.843 150.135L190.605 160.829H205.233L212.031 150.172L215.819 148.777L229.062 152.071ZM229.979 121.773L225.911 130.449L228.969 140.369L226.316 142.737L215.229 139.98L205.508 143.559L199.808 152.496H196.054L190.4 143.554L180.694 139.92L169.577 142.651L166.929 140.287L170.018 130.388L166.009 121.709L156 116.615V113.263L166.02 108.215L170.09 99.5481L167.031 89.6227L169.673 87.2633L180.76 90.0248L190.485 86.4439L196.177 77.5H199.927L205.581 86.4462L215.287 90.0799L226.406 87.3484L229.06 89.7152L225.973 99.6123L229.983 108.294L240 113.376V116.725L229.979 121.773ZM198 131.667C187.691 131.667 179.333 124.205 179.333 115C179.333 105.795 187.691 98.3333 198 98.3333C208.309 98.3333 216.667 105.795 216.667 115C216.667 124.205 208.309 131.667 198 131.667ZM207.333 115C207.333 119.602 203.155 123.333 198 123.333C192.845 123.333 188.667 119.602 188.667 115C188.667 110.398 192.845 106.667 198 106.667C203.155 106.667 207.333 110.398 207.333 115Z" fill="white"/>
<path d="M110.684 272H104.824V259.812H93.3984V272H87.5391V243.562H93.3984V255.086H104.824V243.562H110.684V272ZM114.57 261.238C114.57 259.142 114.974 257.273 115.781 255.633C116.589 253.992 117.747 252.723 119.258 251.824C120.781 250.926 122.546 250.477 124.551 250.477C127.402 250.477 129.727 251.349 131.523 253.094C133.333 254.839 134.342 257.208 134.551 260.203L134.59 261.648C134.59 264.891 133.685 267.495 131.875 269.461C130.065 271.414 127.637 272.391 124.59 272.391C121.543 272.391 119.108 271.414 117.285 269.461C115.475 267.508 114.57 264.852 114.57 261.492V261.238ZM120.215 261.648C120.215 263.654 120.592 265.19 121.348 266.258C122.103 267.312 123.184 267.84 124.59 267.84C125.957 267.84 127.025 267.319 127.793 266.277C128.561 265.223 128.945 263.543 128.945 261.238C128.945 259.272 128.561 257.749 127.793 256.668C127.025 255.587 125.944 255.047 124.551 255.047C123.171 255.047 122.103 255.587 121.348 256.668C120.592 257.736 120.215 259.396 120.215 261.648ZM156.445 264.324L159.219 250.867H164.668L159.277 272H154.551L150.547 258.699L146.543 272H141.836L136.445 250.867H141.895L144.648 264.305L148.516 250.867H152.598L156.445 264.324ZM184.043 272H178.184V243.562H184.043V272ZM195.879 245.672V250.867H199.492V255.008H195.879V265.555C195.879 266.336 196.029 266.896 196.328 267.234C196.628 267.573 197.201 267.742 198.047 267.742C198.672 267.742 199.225 267.697 199.707 267.605V271.883C198.6 272.221 197.461 272.391 196.289 272.391C192.331 272.391 190.312 270.392 190.234 266.395V255.008H187.148V250.867H190.234V245.672H195.879ZM235.117 263.797L238.945 243.562H244.785L238.477 272H232.578L227.949 252.977L223.32 272H217.422L211.113 243.562H216.953L220.801 263.758L225.488 243.562H230.449L235.117 263.797ZM246.094 261.238C246.094 259.142 246.497 257.273 247.305 255.633C248.112 253.992 249.271 252.723 250.781 251.824C252.305 250.926 254.069 250.477 256.074 250.477C258.926 250.477 261.25 251.349 263.047 253.094C264.857 254.839 265.866 257.208 266.074 260.203L266.113 261.648C266.113 264.891 265.208 267.495 263.398 269.461C261.589 271.414 259.16 272.391 256.113 272.391C253.066 272.391 250.632 271.414 248.809 269.461C246.999 267.508 246.094 264.852 246.094 261.492V261.238ZM251.738 261.648C251.738 263.654 252.116 265.19 252.871 266.258C253.626 267.312 254.707 267.84 256.113 267.84C257.48 267.84 258.548 267.319 259.316 266.277C260.085 265.223 260.469 263.543 260.469 261.238C260.469 259.272 260.085 257.749 259.316 256.668C258.548 255.587 257.467 255.047 256.074 255.047C254.694 255.047 253.626 255.587 252.871 256.668C252.116 257.736 251.738 259.396 251.738 261.648ZM281.465 256.16C280.697 256.056 280.02 256.004 279.434 256.004C277.298 256.004 275.898 256.727 275.234 258.172V272H269.59V250.867H274.922L275.078 253.387C276.211 251.447 277.78 250.477 279.785 250.477C280.41 250.477 280.996 250.561 281.543 250.73L281.465 256.16ZM291.875 263.523L289.844 265.555V272H284.199V242H289.844V258.621L290.938 257.215L296.348 250.867H303.125L295.488 259.676L303.789 272H297.305L291.875 263.523ZM317.012 266.16C317.012 265.47 316.667 264.93 315.977 264.539C315.299 264.135 314.206 263.777 312.695 263.465C307.669 262.41 305.156 260.275 305.156 257.059C305.156 255.184 305.931 253.621 307.48 252.371C309.043 251.108 311.081 250.477 313.594 250.477C316.276 250.477 318.418 251.108 320.02 252.371C321.634 253.634 322.441 255.275 322.441 257.293H316.797C316.797 256.486 316.536 255.822 316.016 255.301C315.495 254.767 314.681 254.5 313.574 254.5C312.624 254.5 311.888 254.715 311.367 255.145C310.846 255.574 310.586 256.121 310.586 256.785C310.586 257.41 310.879 257.918 311.465 258.309C312.064 258.686 313.066 259.018 314.473 259.305C315.879 259.578 317.064 259.891 318.027 260.242C321.009 261.336 322.5 263.23 322.5 265.926C322.5 267.853 321.673 269.415 320.02 270.613C318.366 271.798 316.23 272.391 313.613 272.391C311.842 272.391 310.267 272.078 308.887 271.453C307.52 270.815 306.445 269.949 305.664 268.855C304.883 267.749 304.492 266.557 304.492 265.281H309.844C309.896 266.284 310.267 267.052 310.957 267.586C311.647 268.12 312.572 268.387 313.73 268.387C314.811 268.387 315.625 268.185 316.172 267.781C316.732 267.365 317.012 266.824 317.012 266.16Z" fill="black"/>
<defs>
<filter id="filter0_d" x="0" y="0" width="403" height="667" filterUnits="userSpaceOnUse" color-interpolation-filters="sRGB">
<feFlood flood-opacity="0" result="BackgroundImageFix"/>
<feColorMatrix in="SourceAlpha" type="matrix" values="0 0 0 0 0 0 0 0 0 0 0 0 0 0 0 0 0 0 127 0"/>
<feOffset dy="4"/>
<feGaussianBlur stdDeviation="2"/>
<feColorMatrix type="matrix" values="0 0 0 0 0 0 0 0 0 0 0 0 0 0 0 0 0 0 0.25 0"/>
<feBlend mode="normal" in2="BackgroundImageFix" result="effect1_dropShadow"/>
<feBlend mode="normal" in="SourceGraphic" in2="effect1_dropShadow" result="shape"/>
</filter>
</defs>
</svg>
