<svg width="234" height="281" viewBox="0 0 234 281" fill="none" xmlns="http://www.w3.org/2000/svg">
<path d="M119.5 281L95.6843 240.5H143.316L119.5 281Z" fill="black"/>
<ellipse cx="117" cy="122.5" rx="117" ry="122.5" fill="black"/>
<path d="M117.5 209C167.482 209 208 170.273 208 122.5C208 74.7274 167.482 36 117.5 36C67.5182 36 27 74.7274 27 122.5C27 170.273 67.5182 209 117.5 209Z" fill="#FFA037"/>
<path d="M117.5 181.196C151.416 181.196 178.911 154.917 178.911 122.5C178.911 90.0829 151.416 63.8036 117.5 63.8036C83.5838 63.8036 56.0894 90.0829 56.0894 122.5C56.0894 154.917 83.5838 181.196 117.5 181.196Z" fill="#FFC850"/>
<path d="M69.0178 122.5C69.0178 81.6433 98.6629 47.4261 138.509 38.3686C131.764 36.8353 124.735 36 117.5 36C67.5182 36 27 74.7273 27 122.5C27 170.272 67.5182 209 117.5 209C124.736 209 131.764 208.165 138.509 206.632C98.6629 197.574 69.0178 163.356 69.0178 122.5Z" fill="#FF8C32"/>
<path d="M85.9922 172.814C75.3432 158.634 69.0178 141.289 69.0178 122.5C69.0178 103.711 75.3432 86.3663 85.9918 72.1864C68.1015 82.4448 56.0894 101.108 56.0894 122.5C56.0894 143.892 68.1015 162.555 85.9922 172.814Z" fill="#FFB23C"/>
<path d="M179.201 85.1509C177.938 83.9443 175.893 83.9443 174.63 85.1509L156.179 102.785C154.827 104.078 152.633 104.078 151.281 102.785L150.827 102.352C149.474 101.059 149.474 98.9622 150.827 97.6694L169.222 80.0873C170.485 78.8807 170.485 76.9256 169.222 75.719C167.96 74.5124 165.914 74.5124 164.652 75.719L146.256 93.3012C144.904 94.5939 142.71 94.5939 141.358 93.3012C140.005 92.0084 140.005 89.9118 141.358 88.619L159.808 70.9845C161.07 69.7779 161.07 67.8229 159.808 66.6163C158.546 65.4097 156.5 65.4097 155.237 66.6163L135.526 85.455C132.467 88.3767 130.662 92.0966 130.57 95.6961L130.473 103.745C130.463 104.597 130.085 105.406 129.43 105.983L68.4889 159.583C64.9018 163.012 64.9018 168.571 68.4889 172C72.076 175.429 77.8924 175.429 81.4796 172L137.462 113.855C138.08 113.213 138.953 112.851 139.865 112.857L148.505 112.921C148.571 112.921 148.634 112.923 148.701 112.923C152.523 112.923 156.446 111.267 159.489 108.36L179.201 89.5198C180.463 88.3129 180.463 86.3575 179.201 85.1509Z" fill="white"/>
<path d="M122.337 112.22L96.5786 134.876L102.34 140.383C104.108 142.073 106.289 143.199 108.649 143.781L131.033 120.531L122.337 112.22Z" fill="#FAF0C3"/>
<path d="M73.2438 74.035L163.013 159.837C166.6 163.266 166.6 168.825 163.013 172.253C159.426 175.682 153.61 175.682 150.023 172.253L128.227 151.421C125.995 149.288 125.499 146.123 126.739 143.532C127.393 142.167 127.285 140.587 126.175 139.526L122.5 136.014C121.065 134.642 118.739 134.642 117.304 136.014C114.434 138.757 109.781 138.757 106.911 136.014L82.1074 112.306C63.6932 94.7058 65.43 81.3067 67.9735 75.0301C68.805 72.9784 71.6162 72.479 73.2438 74.035Z" fill="white"/>
</svg>
